<?xml version="1.0" encoding="UTF-8"?>
<svg width="400px" height="301px" viewBox="0 0 400 301" version="1.1" xmlns="http://www.w3.org/2000/svg" xmlns:xlink="http://www.w3.org/1999/xlink">
    <title>image_kaikas</title>
    <defs>
        <linearGradient x1="50%" y1="0%" x2="50%" y2="99.0709459%" id="linearGradient-1">
            <stop stop-color="#A6A5A5" stop-opacity="0.697880245" offset="0%"></stop>
            <stop stop-color="#727272" stop-opacity="0.698809003" offset="100%"></stop>
        </linearGradient>
        <path d="M3.37804332,12.9578057 L7.8621561,8.47243001 L12.3462689,12.9578057 C11.0876934,14.0077532 9.50082423,14.5831245 7.8621561,14.5831245 C6.22348797,14.5831245 4.63661884,14.0077532 3.37804332,12.9578057 L3.37804332,12.9578057 Z M6.35438543,1.65897069 L0.875591992,7.13969665 C0.762894183,8.90080859 1.32078333,10.6395217 2.43726162,12.0058533 L6.35438543,1.65897069 Z M8.75323877,7.5806746 L13.2373516,3.09529887 C14.2866311,4.35383594 14.86132,5.94135657 14.86132,7.5806746 C14.86132,9.21999263 14.2866311,10.8068133 13.2373516,12.0660503 L8.75323877,7.5806746 Z M8.1092513,0.583124478 C9.66322107,0.635621853 11.1548921,1.20539336 12.3469689,2.20284349 L4.53932073,10.0116531 L8.1092513,0.583124478 Z" id="path-2"></path>
    </defs>
    <g id="Symbols" stroke="none" stroke-width="1" fill="none" fill-rule="evenodd">
        <g id="fullscreen-install" transform="translate(-520.000000, -236.000000)">
            <g id="image_kaikas" transform="translate(520.000000, 236.000000)">
                <g id="Browser">
                    <rect id="Window" fill="#DEE1E6" fill-rule="nonzero" x="0" y="0" width="399.665831" height="300.75188" rx="5.34670008"></rect>
                    <path d="M0,53.4670008 L399.665831,53.4670008 L399.665831,295.40518 C399.665831,298.358081 397.272032,300.75188 394.319131,300.75188 L5.34670008,300.75188 C2.39379917,300.75188 -1.38492286e-14,298.358081 0,295.40518 L0,53.4670008 L0,53.4670008 Z" id="Mockup" fill="#FFFFFF" fill-rule="nonzero"></path>
                    <polygon id="Icon-new-tab" fill="#5F6368" fill-rule="nonzero" points="227.234754 16.7084378 227.234754 13.3667502 228.571429 13.3667502 228.571429 16.7084378 231.913116 16.7084378 231.913116 18.0451128 228.571429 18.0451128 228.571429 21.3868003 227.234754 21.3868003 227.234754 18.0451128 223.893066 18.0451128 223.893066 16.7084378"></polygon>
                    <g id="Tab" transform="translate(0.000000, 6.015038)">
                        <path d="M0,22.7234754 L47.4519632,22.7234754 C50.4048642,22.7234754 52.7986633,20.3296762 52.7986633,17.3767753 L52.7986633,5.34670008 C52.7986633,2.39379917 55.1924625,4.89966642e-15 58.1453634,0 L207.852966,0 C210.805867,-1.53904779e-14 213.199666,2.39379917 213.199666,5.34670008 L213.199666,17.3767753 C213.199666,20.3296762 215.593465,22.7234754 218.546366,22.7234754 L399.665831,22.7234754 L399.665831,22.7234754 L399.665831,46.7836257 L0,46.7836257 L0,22.7234754 Z" id="Tab-background" fill="#FFFFFF" fill-rule="nonzero"></path>
                        <g id="Group" transform="translate(322.138680, 27.401838)">
                            <path d="M60.4845447,12.0300752 C59.9308758,12.0300752 59.4820384,11.5812378 59.4820384,11.0275689 C59.4820384,10.4739 59.9308758,10.0250627 60.4845447,10.0250627 C61.0382136,10.0250627 61.487051,10.4739 61.487051,11.0275689 C61.487051,11.5812378 61.0382136,12.0300752 60.4845447,12.0300752 Z M60.4845447,5.34670008 C59.9308758,5.34670008 59.4820384,4.89786274 59.4820384,4.34419382 C59.4820384,3.7905249 59.9308758,3.34168755 60.4845447,3.34168755 C61.0382136,3.34168755 61.487051,3.7905249 61.487051,4.34419382 C61.487051,4.89786274 61.0382136,5.34670008 60.4845447,5.34670008 Z M60.4845447,8.68838764 C59.9308758,8.68838764 59.4820384,8.23955029 59.4820384,7.68588137 C59.4820384,7.13221245 59.9308758,6.6833751 60.4845447,6.6833751 C61.0382136,6.6833751 61.487051,7.13221245 61.487051,7.68588137 C61.487051,8.23955029 61.0382136,8.68838764 60.4845447,8.68838764 Z" id="Icon-more" fill="#5F6368" fill-rule="nonzero"></path>
                            <circle id="User-picture" fill="#DEE1E6" fill-rule="nonzero" cx="38.0952381" cy="7.35171261" r="6.6833751"></circle>
                            <rect id="Rectangle" stroke="#979797" stroke-width="0.66833751" fill="#D8D8D8" opacity="0.3" x="23.0576441" y="1.67084378" width="1" height="11.3617377"></rect>
                            <g id="Fill-1">
                                <use fill="#6D7369" xlink:href="#path-2"></use>
                                <use fill="url(#linearGradient-1)" style="mix-blend-mode: overlay;" xlink:href="#path-2"></use>
                            </g>
                        </g>
                        <g id="Url" transform="translate(73.517126, 25.396825)" fill-rule="nonzero">
                            <rect id="Url-background" fill="#F1F3F4" x="0" y="0" width="240.601504" height="18.7134503" rx="9.35672515"></rect>
                            <path d="M225.646112,8.95026755 L224.057121,8.95026755 L225.267006,10.2928712 L224.843236,12.1738943 L226.566416,11.217792 L228.289596,12.1738943 L227.865826,10.2928712 L229.075711,8.95026755 L227.48672,8.95026755 L226.566416,6.90775284 L225.646112,8.95026755 Z M226.566416,4.67836257 L228.041998,7.95325392 L231.244779,7.95325392 L228.860835,10.5987048 L229.635008,14.0350877 L226.566416,12.3324871 L223.497825,14.0350877 L224.271997,10.5987048 L221.888053,7.95325392 L225.090835,7.95325392 L226.566416,4.67836257 Z" id="Icon-favorites" fill="#5F6368"></path>
                        </g>
                        <g id="Icon-refresh" transform="translate(52.130326, 28.738513)" fill-rule="nonzero">
                            <rect id="Background" x="0" y="0" width="12.0300752" height="12.0300752"></rect>
                            <path d="M9.32313949,2.70693569 L10.6934002,1.33667502 L10.6934002,5.34670008 L6.6833751,5.34670008 L8.37796752,3.65210767 C7.77324102,3.04738116 6.93781913,2.67335004 6.01503759,2.67335004 C4.16947452,2.67335004 2.67335004,4.16947452 2.67335004,6.01503759 C2.67335004,7.86060067 4.16947452,9.35672515 6.01503759,9.35672515 C7.6317179,9.35672515 8.98025835,8.20868192 9.28987929,6.6833751 L10.6460225,6.6833751 C10.3217253,8.95057253 8.37191105,10.6934002 6.01503759,10.6934002 C3.43124929,10.6934002 1.33667502,8.5988259 1.33667502,6.01503759 C1.33667502,3.43124929 3.43124929,1.33667502 6.01503759,1.33667502 C7.30693175,1.33667502 8.47652239,1.86031859 9.32313949,2.70693569 L9.32313949,2.70693569 Z" id="Refresh" fill="#5F6368"></path>
                        </g>
                        <g id="Icon-forward" transform="translate(30.743525, 28.738513)" fill-rule="nonzero">
                            <rect id="Background" x="0" y="0" width="12.0300752" height="12.0300752"></rect>
                            <polygon id="Forward" fill="#BABCBE" points="8.27465489 5.34670008 5.34670008 2.27234754 6.23781676 1.33667502 10.6934002 6.01503759 6.23781676 10.6934002 5.34670008 9.75772765 8.27465489 6.6833751 1.33667502 6.6833751 1.33667502 5.34670008"></polygon>
                        </g>
                        <g id="Icon-back" transform="translate(9.356725, 28.738513)" fill-rule="nonzero">
                            <rect id="Background" x="0" y="0" width="12.0300752" height="12.0300752"></rect>
                            <polygon id="Back" fill="#5F6368" points="3.7554203 5.34670008 10.6934002 5.34670008 10.6934002 6.6833751 3.7554203 6.6833751 6.6833751 9.75772765 5.79225842 10.6934002 1.33667502 6.01503759 5.79225842 1.33667502 6.6833751 2.27234754"></polygon>
                        </g>
                        <g id="Current-tab" transform="translate(199.832916, 8.688388)" fill="#5F6368" fill-opacity="0.8" fill-rule="nonzero">
                            <polygon id="Close-tab" points="1.78223336 2.67335004 0 0.891116681 0.891116681 0 2.67335004 1.78223336 4.4555834 0 5.34670008 0.891116681 3.56446672 2.67335004 5.34670008 4.4555834 4.4555834 5.34670008 2.67335004 3.56446672 0.891116681 5.34670008 0 4.4555834"></polygon>
                        </g>
                    </g>
                    <g id="Window-controls" transform="translate(9.356725, 10.693400)" fill-rule="nonzero">
                        <circle id="Close" fill="#FF5F57" cx="4.01002506" cy="4.01002506" r="4.01002506"></circle>
                        <circle id="Minimize" fill="#FFBD2E" cx="17.3767753" cy="4.01002506" r="4.01002506"></circle>
                        <circle id="Maximize" fill="#27C940" cx="30.7435255" cy="4.01002506" r="4.01002506"></circle>
                    </g>
                    <rect id="Window-border" stroke="#DEE1E6" stroke-width="0.66833751" fill-rule="nonzero" x="0.334168755" y="0.334168755" width="398.997494" height="300.083542" rx="5.34670008"></rect>
                </g>
                <circle id="Oval" stroke="#E36464" stroke-width="6" cx="330" cy="41" r="16"></circle>
                <g id="Group-2" transform="translate(349.507596, 22.913176) rotate(15.000000) translate(-349.507596, -22.913176) translate(337.007596, 12.913176)" fill="#E36464">
                    <rect id="Rectangle-Copy-6" transform="translate(13.375000, 7.332532) rotate(30.000000) translate(-13.375000, -7.332532) " x="11.375" y="2.83253175" width="4" height="9"></rect>
                    <rect id="Rectangle-Copy-7" x="0.841544069" y="0.188840425" width="4" height="9"></rect>
                    <rect id="Rectangle-Copy-8" transform="translate(20.075924, 15.186160) rotate(60.000000) translate(-20.075924, -15.186160) " x="18.0759242" y="10.6861596" width="4" height="9"></rect>
                </g>
            </g>
        </g>
    </g>
</svg>