<svg xmlns="http://www.w3.org/2000/svg" width="16" height="17" viewBox="0 0 16 17">
    <path fill="#CDFFAB" fill-rule="evenodd" d="M11.504 7A1.996 1.996 0 0 0 13.5 5c0-1.104-.89-2-1.996-2A2.003 2.003 0 0 0 9.5 5c0 1.104.898 2 2.004 2zm-7-3A1.996 1.996 0 0 0 6.5 2c0-1.104-.89-2-1.996-2A2.003 2.003 0 0 0 2.5 2c0 1.104.898 2 2.004 2zm6.995 4c-2.503 0-4.501 1.061-4.501 2.5v3.506c0 .432.562.996 1.002.996h7c.44 0 1-.568 1-1v-3.503C16 9.061 14.002 8 11.499 8zM4.5 5c2.238 0 4.072.848 4.436 2.056-2.266.258-3.439 1.49-3.439 4.942l.013.003H1.002c-.408 0-.922-.485-.994-.9L0 11.006V7.5C0 6.061 1.998 5 4.501 5z"/>
</svg>
