<svg xmlns="http://www.w3.org/2000/svg" xmlns:xlink="http://www.w3.org/1999/xlink" width="16" height="16" viewBox="0 0 16 16">
    <defs>
        <path id="a" d="M6.5 9.5h6v-6h-6v6zm3 3h-6v-6H5v3.75c0 .414.335.75.75.75H9.5v1.5zM13.25 2h-7.5a.75.75 0 0 0-.75.75V5H2.75a.75.75 0 0 0-.75.75v7.5c0 .414.335.75.75.75h7.5a.75.75 0 0 0 .75-.75V11h2.25a.75.75 0 0 0 .75-.75v-7.5a.75.75 0 0 0-.75-.75z"/>
    </defs>
    <use fill="#FFF" fill-opacity="1" fill-rule="evenodd" transform="rotate(180 8 8)" xlink:href="#a"/>
</svg>
