<?xml version="1.0" encoding="UTF-8"?>
<svg width="16px" height="16px" viewBox="0 0 16 16" version="1.1" xmlns="http://www.w3.org/2000/svg" xmlns:xlink="http://www.w3.org/1999/xlink">
    <!-- Generator: Sketch 63.1 (92452) - https://sketch.com -->
    <title>icon/download</title>
    <desc>Created with Sketch.</desc>
    <g id="icon/download" stroke="none" stroke-width="1" fill="none" fill-rule="evenodd">
        <g id="icon/upload" fill="#FFFFFF">
            <rect id="Rectangle" opacity="0" x="0" y="0" width="16" height="16"></rect>
            <path d="M13.25,7.24711224 C13.66475,7.24711224 14,7.58250566 14,7.9974331 L14,13.2496791 C14,13.6646066 13.66475,14 13.25,14 L2.75,14 C2.336,14 2,13.6646066 2,13.2496791 L2,7.9974331 C2,7.58250566 2.336,7.24711224 2.75,7.24711224 C3.164,7.24711224 3.5,7.56807285 3.5,7.9974331 L3.5,12.4993583 L12.5,12.4993583 L12.5,7.99966839 C12.5,7.57956049 12.83525,7.24711224 13.25,7.24711224 Z M8,2 C8.414,2 8.75,2.33539343 8.75,2.75032086 L8.75,2.75032086 L8.75,7.69193406 L9.71975,6.72176919 C10.013,6.42839373 10.487,6.42839373 10.78025,6.72176919 C11.0735,7.01514465 11.0735,7.48934743 10.78025,7.78272289 L10.78025,7.78272289 L8.53025,10.0336855 C8.465,10.0989634 8.38775,10.1454833 8.30675,10.182249 C8.2835,10.1927535 8.26025,10.1995064 8.23625,10.2070096 C8.17325,10.2287689 8.1095,10.240774 8.0435,10.2445256 C8.02025,10.2460263 7.9985,10.2490276 7.9745,10.2482772 C7.8935,10.2460263 7.8125,10.2325205 7.7345,10.2017573 C7.7285,10.1995064 7.72175,10.1995064 7.71575,10.1972554 C7.715,10.1965051 7.7135,10.1965051 7.71275,10.1965051 C7.62875,10.16124 7.55675,10.1094679 7.49225,10.0494422 C7.4855,10.0426893 7.4765,10.0404384 7.46975,10.0336855 L7.46975,10.0336855 L5.21975,7.78272289 C4.9265,7.48934743 4.9265,7.01514465 5.21975,6.72176919 C5.366,6.57545662 5.558,6.50192518 5.75,6.50192518 C5.942,6.50192518 6.134,6.57545662 6.28025,6.72176919 L6.28025,6.72176919 L7.25,7.69193406 L7.25,2.75032086 C7.25,2.33539343 7.586,2 8,2 Z" id="Combined-Shape"></path>
        </g>
    </g>
</svg>