<svg xmlns="http://www.w3.org/2000/svg" xmlns:xlink="http://www.w3.org/1999/xlink" width="16" height="16" viewBox="0 0 16 16">
    <defs>
        <path id="a" d="M13.315 2.684a2.345 2.345 0 0 0-3.31 0L2.97 9.72a.749.749 0 0 0-.197.348l-.75 3a.75.75 0 0 0 .909.91l3-.75a.751.751 0 0 0 .349-.197l7.034-7.035a2.344 2.344 0 0 0 0-3.31zm-1.06 2.25l-.504.504-1.19-1.19.504-.503a.844.844 0 0 1 1.19 0 .843.843 0 0 1 0 1.19zM4.56 10.25L9.5 5.31l1.19 1.19-4.94 4.94-1.19-1.19z"/>
    </defs>
    <use fill="#FFF" fill-rule="evenodd" xlink:href="#a"/>
</svg>
