<svg xmlns="http://www.w3.org/2000/svg" id="prefix__185_1" width="56" height="16" data-name="185 – 1" viewBox="0 0 56 16">
    <defs>
        <style>
            .prefix__cls-2{fill:#fff}
        </style>
    </defs>
    <rect id="prefix__2432" width="56" height="16" data-name="2432" rx="2" style="fill:rgba(255,255,255,.2)"/>
    <g id="prefix__4049" data-name="4049" transform="translate(0 51.158)">
        <g id="prefix__4048" data-name="4048">
            <path id="prefix__3821" d="M6.414-46.315v2.638h3.049v-2.638h.824v6.3h-.824v-2.955H6.414v2.955H5.6v-6.3z" class="prefix__cls-2" data-name="3821"/>
            <path id="prefix__3822" d="M12.724-41.994l-.655 1.983h-.842l2.142-6.3h.982l2.151 6.3h-.869l-.674-1.983zm2.067-.636l-.618-1.814c-.14-.412-.234-.786-.327-1.151h-.019c-.093.374-.2.758-.318 1.141l-.617 1.824z" class="prefix__cls-2" data-name="3822"/>
            <path id="prefix__3823" d="M17.433-46.231A8.488 8.488 0 0 1 19-46.362a2.573 2.573 0 0 1 1.823.515 1.564 1.564 0 0 1 .5 1.2 1.653 1.653 0 0 1-1.188 1.608v.029a1.568 1.568 0 0 1 .926 1.272 10.024 10.024 0 0 0 .487 1.73H20.7a8.18 8.18 0 0 1-.421-1.506c-.187-.87-.524-1.2-1.263-1.225h-.767v2.731h-.813zm.813 2.872h.833c.87 0 1.421-.477 1.421-1.2 0-.814-.589-1.169-1.449-1.178a3.319 3.319 0 0 0-.805.075z" class="prefix__cls-2" data-name="3823"/>
            <path id="prefix__3824" d="M22.469-46.231a11.623 11.623 0 0 1 1.73-.131 3.605 3.605 0 0 1 2.553.786 2.9 2.9 0 0 1 .889 2.263 3.336 3.336 0 0 1-.907 2.451 3.879 3.879 0 0 1-2.787.907 13.336 13.336 0 0 1-1.478-.074zm.813 5.575a5.192 5.192 0 0 0 .823.047 2.424 2.424 0 0 0 2.685-2.676 2.248 2.248 0 0 0-2.554-2.431 4.615 4.615 0 0 0-.954.084z" class="prefix__cls-2" data-name="3824"/>
            <path id="prefix__3825" d="M29.732-40.011l-1.6-6.3h.861l.748 3.189c.188.786.356 1.572.468 2.18h.019c.1-.627.3-1.375.514-2.189l.842-3.18h.852l.766 3.2c.178.748.347 1.5.44 2.16h.019c.131-.691.309-1.393.505-2.179L35-46.315h.833l-1.787 6.3h-.851l-.8-3.283a18.8 18.8 0 0 1-.412-2.058h-.018a19.805 19.805 0 0 1-.487 2.058l-.9 3.283z" class="prefix__cls-2" data-name="3825"/>
            <path id="prefix__3826" d="M37.109-41.994l-.655 1.983h-.842l2.143-6.3h.981l2.152 6.3h-.87l-.673-1.983zm2.067-.636l-.617-1.814c-.14-.412-.234-.786-.328-1.151h-.018c-.094.374-.2.758-.318 1.141l-.618 1.824z" class="prefix__cls-2" data-name="3826"/>
            <path id="prefix__3827" d="M41.818-46.231a8.488 8.488 0 0 1 1.562-.131 2.574 2.574 0 0 1 1.824.515 1.568 1.568 0 0 1 .5 1.2 1.654 1.654 0 0 1-1.188 1.608v.029a1.572 1.572 0 0 1 .926 1.272 10.054 10.054 0 0 0 .486 1.73h-.842a8.18 8.18 0 0 1-.421-1.506c-.186-.87-.523-1.2-1.263-1.225h-.766v2.731h-.814zm.814 2.872h.832c.87 0 1.422-.477 1.422-1.2 0-.814-.589-1.169-1.449-1.178a3.313 3.313 0 0 0-.805.075z" class="prefix__cls-2" data-name="3827"/>
            <path id="prefix__3828" d="M50.119-42.966h-2.451v2.273H50.4v.682h-3.546v-6.3h3.406v.683h-2.592v1.992h2.451z" class="prefix__cls-2" data-name="3828"/>
        </g>
    </g>
</svg>
