<svg xmlns="http://www.w3.org/2000/svg" width="16" height="16" viewBox="0 0 16 16">
    <path fill="#FFF" fill-opacity=".8" fill-rule="evenodd" d="M8 9.75A1.75 1.75 0 0 0 9.75 8a1.72 1.72 0 0 0-.065-.448l5.058-5.058a.874.874 0 1 0-1.237-1.237L11.223 3.54A6.787 6.787 0 0 0 8 2.75c-4.91 0-6.857 4.724-6.938 4.925a.89.89 0 0 0 0 .65c.048.117.73 1.76 2.26 3.116l-2.065 2.065a.874.874 0 1 0 1.237 1.238l5.058-5.059c.144.038.292.065.448.065M4.5 8A3.5 3.5 0 0 1 8 4.5c.65 0 1.253.182 1.772.491L8.448 6.315A1.753 1.753 0 0 0 8 6.25 1.75 1.75 0 0 0 6.25 8c0 .156.027.304.065.447L4.99 9.772A3.464 3.464 0 0 1 4.501 8m8.875-2.751l-1.97 1.97c.057.252.093.512.093.782A3.5 3.5 0 0 1 8 11.5c-.268 0-.527-.037-.779-.095l-1.472 1.47A6.915 6.915 0 0 0 8 13.25c4.91 0 6.857-4.724 6.937-4.925a.879.879 0 0 0 0-.65c-.038-.097-.521-1.257-1.56-2.426"/>
</svg>
