<svg xmlns="http://www.w3.org/2000/svg" width="56" height="16" viewBox="0 0 56 16">
    <g fill="#FFF" fill-rule="evenodd">
        <rect width="56" height="16" fill-opacity=".2" rx="2"/>
        <path fill-opacity=".6" d="M6.844 11.486H6V5.088h.844v6.398zm2.932-6.398l2.092 5.22 2.092-5.22h1.094v6.398h-.844V8.995l.08-2.69-2.101 5.181h-.646L9.446 6.318l.084 2.677v2.491h-.844V5.088h1.09zm7.911 3.893v2.505h-.843V5.088h2.36c.7 0 1.248.179 1.645.536.397.357.596.83.596 1.42 0 .62-.194 1.099-.583 1.434-.388.336-.944.503-1.667.503h-1.508zm0-.69h1.517c.45 0 .796-.106 1.037-.318.24-.213.36-.52.36-.92 0-.382-.12-.686-.36-.915-.24-.228-.57-.347-.99-.356h-1.564v2.51zm10.056.203c0 .627-.105 1.174-.316 1.641-.211.467-.51.824-.897 1.07-.386.246-.838.37-1.353.37-.504 0-.95-.125-1.34-.372-.39-.248-.693-.6-.908-1.06-.215-.458-.326-.989-.332-1.592v-.462c0-.615.107-1.158.321-1.63.214-.472.516-.833.908-1.083.39-.25.838-.376 1.342-.376.513 0 .965.124 1.356.371.39.248.692.607.903 1.077.21.47.316 1.017.316 1.641v.405zm-.84-.413c0-.76-.151-1.341-.456-1.747-.305-.406-.731-.609-1.279-.609-.533 0-.953.203-1.259.609-.306.406-.464.969-.472 1.69v.47c0 .735.154 1.313.463 1.733.31.42.735.63 1.277.63.545 0 .967-.198 1.265-.595.3-.397.453-.966.462-1.707v-.474zm4.753.817h-1.503v2.588h-.849V5.088h2.119c.72 0 1.275.164 1.663.492.388.328.582.806.582 1.433 0 .398-.107.745-.323 1.041a1.928 1.928 0 0 1-.898.664l1.503 2.716v.052h-.906l-1.388-2.588zm-1.503-.69h1.296c.419 0 .752-.108 1-.325.247-.217.371-.507.371-.87 0-.396-.118-.699-.354-.91-.235-.21-.576-.318-1.021-.32h-1.292v2.425zm9.067-2.426h-2.057v5.704h-.84V5.782h-2.052v-.694h4.949v.694zm4.866 2.747h-2.773v2.267h3.22v.69H40.47V5.088h4.02v.694h-3.176V7.84h2.773v.69zm1.798 2.957V5.088h1.806c.557 0 1.05.123 1.477.369.428.246.758.596.99 1.05.234.454.352.976.355 1.565v.408c0 .604-.117 1.133-.35 1.587a2.457 2.457 0 0 1-.997 1.046c-.432.243-.936.367-1.51.373h-1.77zm.844-5.704v5.014h.888c.65 0 1.156-.202 1.518-.606.362-.404.543-.98.543-1.727v-.374c0-.726-.171-1.29-.512-1.694-.342-.403-.826-.607-1.453-.613h-.984z"/>
    </g>
</svg>
