<svg xmlns="http://www.w3.org/2000/svg" xmlns:xlink="http://www.w3.org/1999/xlink" width="16" height="16" viewBox="0 0 16 16">
    <defs>
        <path id="a" d="M5.6 14A3.604 3.604 0 0 1 2 10.4c0-1.985 1.615-3.6 3.6-3.6.28 0 .559.036.843.109l4.733-4.733A.597.597 0 0 1 11.6 2h1.8a.6.6 0 0 1 .6.6v3.6a.6.6 0 0 1-.6.6h-1.2v1.8a.6.6 0 0 1-.6.6H9.448l-.357.357c.073.284.109.563.109.843 0 1.985-1.615 3.6-3.6 3.6m.6-3.6a.6.6 0 1 1-1.2 0 .6.6 0 0 1 1.2 0M5.6 8a2.402 2.402 0 0 0-2.4 2.4c0 1.324 1.076 2.4 2.4 2.4 1.324 0 2.4-1.076 2.4-2.4 0-.26-.05-.525-.152-.81a.6.6 0 0 1 .14-.627l.788-.787A.597.597 0 0 1 9.2 8H11V6.2a.6.6 0 0 1 .6-.6h1.2V3.2h-.952L7.037 8.012a.603.603 0 0 1-.628.14A2.36 2.36 0 0 0 5.6 8"/>
    </defs>
    <use fill="#FFF" fill-opacity=".8" fill-rule="evenodd" xlink:href="#a"/>
</svg>
