<svg xmlns="http://www.w3.org/2000/svg" xmlns:xlink="http://www.w3.org/1999/xlink" width="16" height="16" viewBox="0 0 16 16">
    <defs>
        <path id="a" d="M12.583 6.25v-.875C12.583 2.963 10.527 1 8 1S3.417 2.963 3.417 5.375v.875c-.507 0-.917.392-.917.875v7c0 .483.41.875.917.875h9.166c.507 0 .917-.392.917-.875v-7c0-.483-.41-.875-.917-.875zm-5.5 6.125h1.834v-3.5H7.083v3.5zM10.75 6.25h-5.5v-.875C5.25 3.928 6.484 2.75 8 2.75s2.75 1.178 2.75 2.625v.875z"/>
    </defs>
    <use fill="#cdffab" fill-rule="evenodd" xlink:href="#a"/>
</svg>
