<svg width="14" height="14" viewBox="0 0 14 14" fill="none" xmlns="http://www.w3.org/2000/svg">
<path d="M6.125 10.859L2.879 7.62L4.12 6.38L6.125 8.39L10.754 3.753L11.996 4.995L6.125 10.858V10.859ZM13.125 0H0.875C0.643179 0.000790755 0.421078 0.0932319 0.257155 0.257155C0.0932319 0.421078 0.000790755 0.643179 0 0.875V13.125C0 13.606 0.394 14 0.875 14H13.125C13.3568 13.9992 13.5789 13.9068 13.7428 13.7428C13.9068 13.5789 13.9992 13.3568 14 13.125V0.875C13.9992 0.643179 13.9068 0.421078 13.7428 0.257155C13.5789 0.0932319 13.3568 0.000790755 13.125 0V0Z" fill="white" fill-opacity="0.8"/>
</svg>
