<svg xmlns="http://www.w3.org/2000/svg" width="16" height="16" viewBox="0 0 16 16">
    <g fill="none" fill-rule="evenodd">
        <path fill="#FFF" fill-opacity=".38" d="M15.385 11c.34 0 .615.224.615.5 0 .245-.218.45-.505.492l-.11.008H.615C.275 12 0 11.776 0 11.5c0-.245.218-.45.505-.492L.615 11h14.77zm0-3.5c.34 0 .615.224.615.5 0 .245-.218.45-.505.492l-.11.008H.615C.275 8.5 0 8.276 0 8c0-.245.218-.45.505-.492l.11-.008h14.77zm0-3.5c.34 0 .615.224.615.5 0 .245-.218.45-.505.492l-.11.008H.615C.275 5 0 4.776 0 4.5c0-.245.218-.45.505-.492L.615 4h14.77z"/>
    </g>
</svg>
