<svg width="10" height="10" viewBox="0 0 10 10" fill="none" xmlns="http://www.w3.org/2000/svg">
<path d="M9.375 4.375H5.625V0.625C5.625 0.45924 5.55915 0.300269 5.44194 0.183058C5.32473 0.065848 5.16576 0 5 0C4.83424 0 4.67527 0.065848 4.55806 0.183058C4.44085 0.300269 4.375 0.45924 4.375 0.625V4.375H0.625C0.45924 4.375 0.300269 4.44085 0.183058 4.55806C0.065848 4.67527 0 4.83424 0 5C0 5.16576 0.065848 5.32473 0.183058 5.44194C0.300269 5.55915 0.45924 5.625 0.625 5.625H4.375V9.375C4.375 9.54076 4.44085 9.69973 4.55806 9.81694C4.67527 9.93415 4.83424 10 5 10C5.16576 10 5.32473 9.93415 5.44194 9.81694C5.55915 9.69973 5.625 9.54076 5.625 9.375V5.625H9.375C9.54076 5.625 9.69973 5.55915 9.81694 5.44194C9.93415 5.32473 10 5.16576 10 5C10 4.83424 9.93415 4.67527 9.81694 4.55806C9.69973 4.44085 9.54076 4.375 9.375 4.375Z" fill="white" fill-opacity="1"/>
</svg>
