<svg xmlns="http://www.w3.org/2000/svg" xmlns:xlink="http://www.w3.org/1999/xlink" width="16" height="16" viewBox="0 0 16 16">
    <defs>
        <path id="a" d="M1.686 8.543a.686.686 0 1 1 0-1.372h1.371a.686.686 0 1 1 0 1.372H1.686zm.685 4.8H4.43v-2.057H2.37v2.057zm2.743-3.429H1.686A.686.686 0 0 0 1 10.6v3.429c0 .379.307.685.686.685h3.428a.686.686 0 0 0 .686-.685V10.6a.686.686 0 0 0-.686-.686zM2.371 4.43H4.43V2.37H2.37V4.43zM1.686 5.8h3.428a.686.686 0 0 0 .686-.686V1.686A.686.686 0 0 0 5.114 1H1.686A.686.686 0 0 0 1 1.686v3.428c0 .38.307.686.686.686zm9.6-1.371h2.057V2.37h-2.057V4.43zM14.029 1H10.6a.686.686 0 0 0-.686.686v3.428c0 .38.307.686.686.686h3.429a.686.686 0 0 0 .685-.686V1.686A.686.686 0 0 0 14.03 1zM8.543 13.343v-.686a.686.686 0 1 0-1.372 0v1.372c0 .379.308.685.686.685h.686a.686.686 0 1 0 0-1.371M7.857 3.057a.686.686 0 0 0 .686-.686v-.685a.686.686 0 1 0-1.372 0v.685c0 .38.308.686.686.686m3.429 6.857a.686.686 0 0 0-.686.686v3.429a.686.686 0 1 0 1.371 0V10.6a.686.686 0 0 0-.685-.686M7.857 5.8a.682.682 0 0 0 .686-.686c0-.089-.02-.178-.055-.26a.708.708 0 0 0-.144-.227.718.718 0 0 0-.974 0 .708.708 0 0 0-.144.227.683.683 0 0 0 .144.747c.13.13.302.199.487.199m5.685 7.742a.72.72 0 0 0-.2.487.681.681 0 0 0 .687.685c.185 0 .356-.069.486-.199a.801.801 0 0 0 .144-.226.575.575 0 0 0 .055-.26.72.72 0 0 0-.199-.487c-.26-.254-.72-.254-.973 0m.487-3.628a.686.686 0 0 0-.686.686v.686a.686.686 0 1 0 1.371 0V10.6a.686.686 0 0 0-.685-.686m0-2.743H10.6a.686.686 0 1 0 0 1.372h3.429a.686.686 0 1 0 0-1.372M7.17 9.914a.686.686 0 1 0 1.372 0V7.857a.686.686 0 0 0-.686-.686H5.8a.686.686 0 1 0 0 1.372h1.371v1.371z"/>
    </defs>
    <use fill="#FFF" fill-opacity=".8" fill-rule="evenodd" xlink:href="#a"/>
</svg>
