<?xml version="1.0" encoding="UTF-8"?>
<svg width="16px" height="16px" viewBox="0 0 16 16" version="1.1" xmlns="http://www.w3.org/2000/svg" xmlns:xlink="http://www.w3.org/1999/xlink">
    <!-- Generator: Sketch 63.1 (92452) - https://sketch.com -->
    <title>icon/refresh</title>
    <desc>Created with Sketch.</desc>
    <g id="icon/refresh" stroke="none" stroke-width="1" fill="none" fill-rule="evenodd">
        <g>
            <rect id="Rectangle" fill="#D8D8D8" opacity="0" x="0" y="0" width="16" height="16"></rect>
            <path d="M12.2356986,3.76436922 C11.0119492,2.54209243 9.27767848,1.83722115 7.37073147,2.03218555 C4.61541828,2.30963488 2.34810334,4.5442268 2.04028906,7.29622424 C1.62736746,10.9330601 4.44274198,14 7.9938677,14 C10.388813,14 12.4459133,12.5977561 13.4068944,10.5806244 C13.6471397,10.0782162 13.2867718,9.50082163 12.7312046,9.50082163 C12.4534209,9.50082163 12.1906526,9.65079425 12.07053,9.89824906 C11.2221638,11.7204163 9.18758649,12.8752054 6.96531754,12.3802958 C5.29861583,12.0128629 3.95474373,10.6556107 3.60188346,8.99091475 C2.97123956,6.08144608 5.18600085,3.50191715 7.9938677,3.50191715 C9.24014015,3.50191715 10.3512746,4.01932266 11.1621025,4.8366734 L10.028445,5.96896662 C9.5554621,6.44138035 9.88579937,7.25123245 10.5539816,7.25123245 L13.2492335,7.25123245 C13.6621551,7.25123245 14,6.91379407 14,6.50136939 L14,3.809361 C14,3.14198288 13.1891721,2.8045445 12.7161892,3.27695823 L12.2356986,3.76436922 Z" id="Path" fill="#FFFFFF"></path>
        </g>
    </g>
</svg>