<svg xmlns="http://www.w3.org/2000/svg" xmlns:xlink="http://www.w3.org/1999/xlink" width="16" height="16" viewBox="0 0 16 16">
    <defs>
        <path id="a" d="M8 10.625a2.625 2.625 0 1 1 0-5.25 2.625 2.625 0 0 1 0 5.25m6.541-1.09c-1.22-.66-1.22-2.41 0-3.07a.876.876 0 0 0 .33-1.228l-.934-1.517a.875.875 0 0 0-1.161-.31l-.391.212a1.746 1.746 0 0 1-2.577-1.535v-.212A.875.875 0 0 0 8.933 1H7.067a.875.875 0 0 0-.875.875v.212a1.746 1.746 0 0 1-2.577 1.535l-.39-.212a.875.875 0 0 0-1.162.31L1.13 5.237a.876.876 0 0 0 .329 1.228c1.22.66 1.22 2.41 0 3.07a.876.876 0 0 0-.33 1.228l.934 1.517a.875.875 0 0 0 1.161.31l.391-.212a1.746 1.746 0 0 1 2.577 1.535v.212c0 .483.391.875.875.875h1.866a.875.875 0 0 0 .875-.875v-.212a1.746 1.746 0 0 1 2.577-1.535l.39.212a.875.875 0 0 0 1.162-.31l.933-1.517a.876.876 0 0 0-.329-1.228"/>
    </defs>
    <use fill="#FFF" fill-rule="evenodd" xlink:href="#a"/>
</svg>
