<svg xmlns="http://www.w3.org/2000/svg" width="16" height="16" viewBox="0 0 16 16">
    <path fill="#FFF" fill-opacity=".8" fill-rule="evenodd" d="M14.938 7.659C14.858 7.449 12.911 2.5 8 2.5c-4.91 0-6.858 4.95-6.938 5.159a.973.973 0 0 0 0 .682C1.142 8.551 3.089 13.5 8 13.5c4.91 0 6.858-4.95 6.938-5.159a.973.973 0 0 0 0-.682M8 11.667c-1.933 0-3.5-1.642-3.5-3.667S6.067 4.333 8 4.333c1.934 0 3.5 1.642 3.5 3.667S9.934 11.667 8 11.667m0-5.5c-.966 0-1.75.821-1.75 1.833S7.034 9.833 8 9.833c.967 0 1.75-.821 1.75-1.833S8.967 6.167 8 6.167"/>
</svg>
