<svg xmlns="http://www.w3.org/2000/svg" width="16" height="16" viewBox="0 0 16 16">
    <path fill="#cdffab" fill-opacity=".8" fill-rule="evenodd" d="M5.375 5.37a.875.875 0 0 1-.619-1.494L7.381 1.25c.008-.007.019-.01.027-.018.075-.07.159-.13.257-.171l.003-.001c.007-.003.015-.003.022-.006A.82.82 0 0 1 7.97 1c.028 0 .054.003.08.005a.826.826 0 0 1 .226.043c.028.009.055.017.082.03a.87.87 0 0 1 .26.172l2.626 2.627a.875.875 0 1 1-1.238 1.237L8.875 3.983v5.765a.875.875 0 1 1-1.75 0V3.983L5.994 5.114a.872.872 0 0 1-.619.257zM15 7.998v6.128a.874.874 0 0 1-.875.875H1.875A.875.875 0 0 1 1 14.125V7.997c0-.484.392-.875.875-.875s.875.374.875.875v5.252h10.5V8A.874.874 0 1 1 15 7.997z"/>
</svg>
