<svg xmlns="http://www.w3.org/2000/svg" width="100.8" height="28.8" viewBox="0 0 168 48">
    <defs>
        <style>
            .cls-1{fill:none}.cls-2{clip-path:url(#clip-path)}.cls-3{fill:#fff}
        </style>
        <clipPath id="clip-path">
            <path d="M0 0h168v48H0z" class="cls-1"/>
        </clipPath>
    </defs>
    <g id="_8_1" class="cls-2" data-name="8 – 1">
        <g id="_61" data-name="61">
            <g id="_60" data-name="60">
                <g id="_57" data-name="57" transform="translate(50.347 14.526)">
                    <g id="_56" data-name="56">
                        <path id="_78" d="M230.927 282.232a8.447 8.447 0 0 0-3.01-6.716 11.6 11.6 0 0 0-7.772-2.585H209.7v4.664h10.444a5.807 5.807 0 0 1 3.935 1.363 4.468 4.468 0 0 1 1.583 3.516 4.326 4.326 0 0 1-1.573 3.464 5.935 5.935 0 0 1-3.945 1.307h-5.13v-7.063H209.7v11.7h10.444a11.177 11.177 0 0 0 7.732-2.757 8.919 8.919 0 0 0 3.051-6.893z" class="cls-3" data-name="78" transform="translate(-209.701 -272.931)"/>
                        <path id="_79" d="M251.241 282.232a8.917 8.917 0 0 0 3.052 6.893 11.171 11.171 0 0 0 7.732 2.757h9.167v-4.637h-9.167a5.869 5.869 0 0 1-3.923-1.321 4.341 4.341 0 0 1-1.571-3.45 4.483 4.483 0 0 1 1.569-3.516 5.76 5.76 0 0 1 3.925-1.363h9.167v-4.664h-9.167a11.612 11.612 0 0 0-7.776 2.585 8.451 8.451 0 0 0-3.008 6.716z" class="cls-3" data-name="79" transform="translate(-223.582 -272.931)"/>
                        <path id="_80" d="M341.352 272.931h-5.313v11.147l-11.5-10.339a2.755 2.755 0 0 0-2.116-.782 2.219 2.219 0 0 0-1.712.645 2.313 2.313 0 0 0-.595 1.647v16.632h5.313v-11.12l11.5 10.339a3.086 3.086 0 0 0 2.348.915c1.4 0 2.078-.8 2.078-2.452z" class="cls-3" data-name="80" transform="translate(-246.597 -272.931)"/>
                        <path id="_81" d="M375.9 272.931h-20.932v4.663h7.807v14.287h5.313v-14.286h7.812z" class="cls-3" data-name="81" transform="translate(-258.243 -272.931)"/>
                    </g>
                </g>
                <path id="_82" d="M299.7 277.595l4.379-4.663H285.09v18.951h18.062v-4.637H290.4v-2.64h12.749v-4.446H290.4v-2.564z" class="cls-3" data-name="82" transform="translate(-184.465 -258.407)"/>
                <path id="_83" d="M245.955 276.694h-2.461l-1.856-5h6.173z" class="cls-3" data-name="83" transform="translate(-169.888 -258.112)"/>
                <g id="_59" data-name="59">
                    <path id="_84" d="M165.751 260.547l3.533-2.038v-4.863l-3.533-2.038z" class="cls-3" data-name="84" transform="translate(-144.42 -251.606)"/>
                    <path id="_85" d="M142.057 281.734v-13.687l11.791-6.808v-9.633l-19.534 11.277a1.2 1.2 0 0 0-.6 1.039v22.555c0 .023 0 .047.005.069z" class="cls-3" data-name="85" transform="translate(-133.715 -251.606)"/>
                    <path id="_86" d="M166.581 298.3l-11.8 6.815-11.731-6.773-8.342 4.816 19.473 11.242a1.214 1.214 0 0 0 .6.16 1.194 1.194 0 0 0 .6-.16l19.535-11.279.011-.007z" class="cls-3" data-name="86" transform="translate(-134.046 -266.558)"/>
                    <g id="_58" data-name="58" transform="translate(24.802 6.809)">
                        <path id="_87" d="M187.028 266.3l-7.742-4.47v4.864l-8.322 4.8 8.322 4.8v8.765l8.341 4.816V267.34a1.2 1.2 0 0 0-.599-1.04z" class="cls-3" data-name="87" transform="translate(-170.964 -261.831)"/>
                    </g>
                    <path id="_88" d="M158.648 281.113v9.538l8.1-4.677v-9.539z" class="cls-3" data-name="88" transform="translate(-142.047 -259.578)"/>
                </g>
            </g>
        </g>
    </g>
</svg>
