<svg xmlns="http://www.w3.org/2000/svg" id="_4_1" width="100.8" height="28.8" data-name="4 – 1" viewBox="0 0 180 52">
    <defs>
        <style>
            .cls-1{fill:#585858}
        </style>
    </defs>
    <g id="_3_1" data-name="3 – 1">
        <g id="_2545" data-name="2545">
            <g id="_61" data-name="61">
                <g id="_60" data-name="60">
                    <g id="_57" data-name="57" transform="translate(53.008 15.774)">
                        <g id="_56" data-name="56">
                            <path id="_78" d="M232.612 282.971a9.118 9.118 0 0 0-3.249-7.249 12.523 12.523 0 0 0-8.389-2.791H209.7v5.034h11.273a6.268 6.268 0 0 1 4.247 1.471 4.823 4.823 0 0 1 1.708 3.8 4.67 4.67 0 0 1-1.7 3.739 6.405 6.405 0 0 1-4.258 1.411h-5.537v-7.623H209.7v12.628h11.273a12.064 12.064 0 0 0 8.346-2.976 9.627 9.627 0 0 0 3.293-7.444z" class="cls-1" data-name="78" transform="translate(-209.701 -272.931)"/>
                            <path id="_79" d="M251.241 282.971a9.625 9.625 0 0 0 3.294 7.44 12.058 12.058 0 0 0 8.345 2.976h9.894v-5.005h-9.894a6.335 6.335 0 0 1-4.235-1.426 4.686 4.686 0 0 1-1.7-3.724 4.839 4.839 0 0 1 1.693-3.8 6.217 6.217 0 0 1 4.237-1.471h9.894v-5.034h-9.889a12.533 12.533 0 0 0-8.393 2.791 9.122 9.122 0 0 0-3.246 7.253z" class="cls-1" data-name="79" transform="translate(-221.386 -272.931)"/>
                            <path id="_80" d="M343.038 272.931H337.3v12.032L324.89 273.8a2.973 2.973 0 0 0-2.284-.844 2.4 2.4 0 0 0-1.848.7 2.5 2.5 0 0 0-.642 1.777v17.952h5.734v-12l12.41 11.16a3.331 3.331 0 0 0 2.534.988c1.51 0 2.243-.866 2.243-2.646z" class="cls-1" data-name="80" transform="translate(-240.761 -272.931)"/>
                            <path id="_81" d="M377.557 272.931h-22.589v5.034h8.426v15.421h5.735v-15.421h8.428z" class="cls-1" data-name="81" transform="translate(-250.566 -272.931)"/>
                        </g>
                    </g>
                    <path id="_82" d="M300.858 277.965l4.727-5.034H285.09v20.455h19.5v-5h-13.764v-2.849h13.761v-4.8h-13.761v-2.768z" class="cls-1" data-name="82" transform="translate(-177.38 -257.159)"/>
                    <path id="_83" d="M246.3 277.091h-2.656l-2-5.4h6.656z" class="cls-1" data-name="83" transform="translate(-164.785 -256.974)"/>
                    <g id="_59" data-name="59">
                        <path id="_84" d="M165.751 261.257l3.813-2.2v-5.249l-3.813-2.2z" class="cls-1" data-name="84" transform="translate(-142.727 -251.606)"/>
                        <path id="_85" d="M142.719 284.125v-14.773L155.446 262v-10.4l-21.084 12.172a1.3 1.3 0 0 0-.647 1.122v24.346c0 .024 0 .051.006.075z" class="cls-1" data-name="85" transform="translate(-133.715 -251.606)"/>
                        <path id="_86" d="M169.111 298.3l-12.738 7.356-12.663-7.311-9 5.2 21.02 12.136a1.311 1.311 0 0 0 .647.173 1.289 1.289 0 0 0 .645-.173L178.1 303.5l.011-.007z" class="cls-1" data-name="86" transform="translate(-133.994 -263.849)"/>
                        <g id="_58" data-name="58" transform="translate(26.771 7.349)">
                            <path id="_87" d="M188.3 266.656l-8.357-4.825v5.25l-8.982 5.185 8.982 5.184v9.461l9 5.2v-24.334a1.3 1.3 0 0 0-.643-1.121z" class="cls-1" data-name="87" transform="translate(-170.964 -261.831)"/>
                        </g>
                        <path id="_88" d="M158.648 281.484v10.295l8.745-5.048v-10.3z" class="cls-1" data-name="88" transform="translate(-140.729 -258.145)"/>
                    </g>
                </g>
            </g>
        </g>
    </g>
</svg>
