<svg width="160" height="24" viewBox="0 0 160 24" fill="none" xmlns="http://www.w3.org/2000/svg">
<path fill-rule="evenodd" clip-rule="evenodd" d="M36.3023 18.5393L36.2992 18.5319C36.0096 17.8171 35.1546 17.0534 34.556 16.5827C34.1983 16.3013 33.9318 16.1246 33.9318 16.1246C33.2783 15.6507 32.7464 15.0288 32.3797 14.3097C32.0129 13.5907 31.8217 12.795 31.8217 11.9878C31.8207 11.0646 32.0714 10.1586 32.5466 9.36713C32.5508 9.3601 32.5583 9.34885 32.5684 9.3335C32.7711 9.02771 34.0513 7.09578 32.3502 4.56115C31.5422 3.44789 31.2928 3.09768 31.2254 3C31.2254 3.05071 31.0893 4.00333 30.5369 4.95663C30.2799 5.39907 29.4781 6.21589 29.4781 6.21589L29.474 6.21862C28.1926 7.86845 27.498 9.89845 27.5 11.9874C27.5 15.2493 29.165 18.1275 31.6862 19.8231L31.6934 19.8286L31.7029 19.8337C31.7059 19.8357 31.7166 19.841 31.7332 19.8493L31.7334 19.8494L31.7339 19.8497C32.2382 19.8956 32.6511 20.2693 32.776 20.7648C32.7784 20.7717 32.7801 20.7757 32.7801 20.7757C32.9114 20.6396 33.0214 20.3013 33.0646 20.1526C33.0975 19.999 33.1062 19.8412 33.0905 19.6849C33.0101 19.0686 32.5289 18.7371 32.5289 18.7371L32.5143 18.7252L32.5003 18.7141L32.5003 18.7141C32.4878 18.7041 32.4759 18.6945 32.4639 18.686L32.4598 18.683C30.3014 17.2358 28.8763 14.7755 28.8763 11.9871C28.8745 10.2108 29.4627 8.48415 30.5484 7.07832C30.5484 7.07832 31.5014 6.34284 31.5957 5.68054C31.5957 5.68054 32.322 6.9347 31.7723 8.05647C30.9087 9.18457 30.4415 10.5661 30.4429 11.9867C30.4434 13.0207 30.691 14.0395 31.1651 14.9583C31.6392 15.8771 32.326 16.6693 33.1684 17.2688V17.2709C33.8756 17.8354 34.5418 18.4496 35.1618 19.1087C35.3963 19.1251 35.6204 19.2124 35.804 19.3592C36.0458 19.5534 36.2061 19.8311 36.2533 20.1376L36.2553 20.1407L36.2604 20.1274C36.3115 20.0491 36.6501 19.4814 36.3023 18.5393ZM64.0595 14.5804C64.0595 14.7564 64.0517 14.9307 64.0374 15.1032C64.0361 15.1585 64.0307 15.2137 64.0214 15.2683C63.678 18.3671 61.0437 20.7852 57.855 20.7852C54.4339 20.7852 51.6506 18.0022 51.6506 14.5808C51.6506 11.1593 54.4339 8.376 57.855 8.376C59.3108 8.37475 60.7203 8.88776 61.8347 9.8245V4.10675C61.8347 3.81456 61.9507 3.53434 62.1574 3.32773C62.364 3.12112 62.6442 3.00505 62.9364 3.00505C63.2285 3.00505 63.5088 3.12112 63.7154 3.32773C63.922 3.53434 64.0381 3.81456 64.0381 4.10675V14.0645C64.052 14.2347 64.0595 14.4045 64.0595 14.5804ZM55.0576 17.3768C55.7996 18.1187 56.8057 18.5361 57.855 18.5373C58.9044 18.5361 59.9104 18.1187 60.6524 17.3767C61.3944 16.6348 61.8117 15.6287 61.8129 14.5794C61.8117 13.5301 61.3944 12.524 60.6524 11.782C59.9104 11.0399 58.9044 10.6225 57.855 10.6212C56.8056 10.6224 55.7995 11.0398 55.0575 11.7819C54.3154 12.5239 53.898 13.53 53.8969 14.5794C53.8981 15.6288 54.3156 16.6348 55.0576 17.3768ZM86.9943 5.94938C86.4772 6.51208 86.2188 7.25698 86.219 8.18407V8.79974H88.5449C88.8642 8.79974 89.1226 8.8905 89.3202 9.07202C89.5178 9.25353 89.6167 9.49677 89.6167 9.80172C89.6194 9.93037 89.5944 10.0581 89.5432 10.1762C89.4921 10.2942 89.416 10.3999 89.3202 10.4858C89.1226 10.6673 88.8642 10.7581 88.5449 10.7581H86.219V19.6512C86.219 20.0011 86.1126 20.2823 85.8998 20.4949C85.6869 20.7075 85.3905 20.8139 85.0105 20.8142C84.8646 20.8162 84.7199 20.789 84.5847 20.7341C84.4496 20.6793 84.3268 20.598 84.2236 20.4949C84.003 20.2823 83.8929 20.0011 83.8931 19.6512V10.7581H82.9126C82.5933 10.7581 82.3349 10.6673 82.1373 10.4858C82.0415 10.3999 81.9653 10.2943 81.9142 10.1762C81.863 10.0581 81.838 9.93038 81.8409 9.80172C81.8409 9.4979 81.9397 9.25467 82.1373 9.07202C82.3349 8.88937 82.5933 8.79861 82.9126 8.79974H83.8931V8.4121C83.8931 7.33276 84.1097 6.3865 84.5428 5.5733C84.976 4.76011 85.584 4.12923 86.3671 3.68066C87.1499 3.23231 88.043 3.00803 89.0466 3.0078C89.3808 3.0078 89.6582 3.10661 89.8787 3.30424C89.9857 3.39769 90.0708 3.51356 90.128 3.64362C90.1852 3.77367 90.213 3.91471 90.2095 4.05674C90.2131 4.19877 90.1853 4.33984 90.1281 4.4699C90.0709 4.59996 89.9858 4.71582 89.8787 4.80923C89.6582 5.00686 89.3808 5.10567 89.0466 5.10567C88.195 5.10567 87.511 5.3869 86.9943 5.94938ZM79.5581 15.1049C79.3605 15.2951 79.1097 15.39 78.8056 15.3898H70.1405C70.3075 16.4542 70.7902 17.3131 71.5886 17.9665C72.3871 18.62 73.3638 18.9468 74.5187 18.9471C75.0043 18.9421 75.4858 18.8573 75.944 18.6962C76.438 18.5292 76.8446 18.324 77.1638 18.0806C77.3782 17.9128 77.6441 17.8242 77.9163 17.8297C78.2049 17.8297 78.4329 17.9057 78.6004 18.0577C78.874 18.2858 79.0108 18.5442 79.0108 18.833C79.0108 19.1067 78.8892 19.3347 78.646 19.5171C78.1289 19.9276 77.4867 20.262 76.7193 20.5205C75.952 20.7789 75.2184 20.9081 74.5187 20.9081C73.2721 20.9081 72.1548 20.6383 71.1666 20.0988C70.1785 19.5592 69.4071 18.8105 68.8523 17.8525C68.2969 16.8948 68.0194 15.8079 68.0198 14.5917C68.0203 13.3755 68.2826 12.2849 68.8067 11.3196C69.331 10.3544 70.0607 9.60195 70.9958 9.06216C71.9308 8.52238 72.9911 8.25249 74.1766 8.25249C75.3469 8.25249 76.3579 8.51092 77.2094 9.02779C78.0609 9.54465 78.7146 10.2667 79.1705 11.1941C79.6265 12.1216 79.8545 13.1857 79.8545 14.3865C79.8545 14.6755 79.7557 14.915 79.5581 15.1049ZM71.4757 11.1257C70.7839 11.7337 70.3467 12.547 70.1643 13.5656H77.7577C77.6216 12.5473 77.2415 11.734 76.6175 11.1257C75.9936 10.5173 75.1803 10.2133 74.1776 10.2135C73.0672 10.2135 72.1665 10.5176 71.4757 11.1257ZM115.283 19.654C115.283 19.9889 115.393 20.2663 115.613 20.4864C115.834 20.7072 116.111 20.8174 116.446 20.8169C116.795 20.8171 117.076 20.707 117.289 20.4864C117.502 20.2659 117.609 19.9884 117.609 19.654V9.50665C117.609 9.157 117.502 8.87577 117.289 8.66295C117.076 8.45012 116.795 8.3437 116.446 8.3437C116.111 8.34347 115.834 8.44989 115.613 8.66295C115.393 8.876 115.283 9.15723 115.283 9.50665V19.654ZM132.524 19.8592C132.527 19.9869 132.504 20.1138 132.454 20.2316C132.405 20.3495 132.332 20.4557 132.239 20.5433C132.049 20.7248 131.802 20.8156 131.498 20.8156C131.133 20.8156 130.86 20.694 130.677 20.4507L127.051 16.1209L123.608 20.4534C123.381 20.6967 123.108 20.8183 122.787 20.8183C122.483 20.8183 122.244 20.7275 122.069 20.546C121.894 20.3645 121.807 20.1365 121.807 19.8619C121.807 19.5579 121.913 19.2767 122.126 19.0182L125.661 14.5938L121.898 10.1472C121.671 9.87357 121.557 9.58473 121.556 9.28069C121.554 9.15858 121.575 9.03721 121.62 8.92366C121.665 8.81012 121.733 8.70669 121.818 8.61941C121.993 8.43789 122.24 8.34713 122.559 8.34713C122.924 8.34713 123.213 8.47635 123.426 8.73478L127.166 13.2042L130.518 8.73478C130.715 8.47635 130.996 8.34713 131.361 8.34713C131.665 8.34713 131.904 8.4422 132.079 8.63234C132.254 8.82128 132.348 9.07061 132.342 9.32765C132.343 9.65925 132.23 9.98116 132.023 10.2398L128.579 14.7323L132.205 19.0649C132.411 19.2777 132.526 19.5629 132.524 19.8592ZM93.2163 19.654C93.2161 19.9889 93.3263 20.2663 93.5468 20.4864C93.7673 20.7072 94.0448 20.8174 94.3793 20.8169C94.7289 20.8171 95.0102 20.707 95.223 20.4864C95.4358 20.2659 95.5422 19.9884 95.5422 19.654V9.50665C95.5422 9.157 95.4358 8.87577 95.223 8.66295C95.0102 8.45012 94.7289 8.3437 94.3793 8.3437C94.0446 8.34347 93.7671 8.44989 93.5468 8.66295C93.3265 8.876 93.2163 9.15723 93.2163 9.50665V19.654ZM105.378 8.26268C102.145 8.26268 99.5242 10.8309 99.5242 13.9991V13.9997C99.5242 14.0539 99.5242 14.1082 99.5266 14.1622C99.5266 14.1962 99.526 14.2297 99.5254 14.2632L99.5248 14.2987L99.5245 14.3223L99.5243 14.3502L99.5242 14.3637V19.8592C99.5242 20.1872 99.6344 20.4595 99.8547 20.676C100.075 20.8924 100.353 21.0004 100.687 21C101.037 21 101.318 20.892 101.531 20.676C101.744 20.46 101.85 20.1894 101.85 19.8643V14.3637C101.85 13.1575 102.181 12.2454 102.842 11.6273C103.482 11.029 104.326 10.7205 105.373 10.7019C106.42 10.721 107.263 11.0294 107.904 11.6273C108.565 12.2454 108.896 13.1575 108.896 14.3637V19.8592C108.896 20.1872 109.006 20.4595 109.227 20.676C109.447 20.8924 109.725 21.0004 110.059 21C110.393 21 110.671 20.892 110.891 20.676C111.112 20.46 111.222 20.1877 111.222 19.8592V14.3871C111.231 14.2588 111.236 14.1298 111.236 13.9991C111.234 10.8309 108.612 8.26268 105.378 8.26268ZM36.9358 13.0254C37.5087 13.0254 37.9731 12.561 37.9731 11.9881C37.9731 11.4151 37.5087 10.9507 36.9358 10.9507C36.3628 10.9507 35.8984 11.4151 35.8984 11.9881C35.8984 12.561 36.3628 13.0254 36.9358 13.0254ZM34.7038 8.85905L34.7015 8.85624C34.6983 8.85237 34.6934 8.84674 34.6991 8.85468L34.7 8.85597L34.7038 8.86119V8.85905ZM39.4263 14.4792C38.7655 15.14 37.8696 15.5116 36.9351 15.5126C36.0006 15.5108 35.1049 15.1384 34.4446 14.477C33.7844 13.8155 33.4135 12.9192 33.4133 11.9847C33.4132 11.2378 33.6517 10.5104 34.094 9.90856L35.1695 10.7703C34.9228 11.1275 34.7909 11.5513 34.7913 11.9853C34.792 12.5544 35.0183 13.1 35.4207 13.5025C35.8231 13.9049 36.3688 14.1312 36.9379 14.1319C37.507 14.1312 38.0526 13.9049 38.455 13.5025C38.8574 13.1 39.0838 12.5544 39.0844 11.9853C39.0838 11.4162 38.8574 10.8705 38.455 10.4681C38.0526 10.0656 37.507 9.83917 36.9379 9.83845C36.5829 9.83833 36.2324 9.75881 35.9121 9.6057C35.5918 9.45259 35.3098 9.22976 35.0867 8.95356C35.0643 8.92361 35.0415 8.89298 35.0187 8.86201L35.0081 8.84806C34.9795 8.80858 34.952 8.76842 34.9258 8.72724C34.9228 8.72234 34.9197 8.71762 34.9166 8.71282L34.9128 8.70715C34.9002 8.68639 34.888 8.66564 34.8757 8.64488L34.8584 8.61458C34.8454 8.59484 34.8349 8.57476 34.8243 8.55468C34.8182 8.54413 34.8121 8.53256 34.8063 8.52065C34.7967 8.50173 34.7874 8.48248 34.7781 8.46323L34.7774 8.46177C34.7713 8.44884 34.7655 8.43591 34.7597 8.42263L34.7511 8.40323C34.7454 8.3903 34.7396 8.37737 34.7342 8.36444L34.7263 8.34439L34.7171 8.32087L34.7171 8.32073L34.7171 8.32071C34.7096 8.30204 34.7021 8.28337 34.6954 8.26437C34.6828 8.23238 34.6715 8.20005 34.6613 8.16772C34.6584 8.15828 34.6561 8.15027 34.6534 8.14089L34.6534 8.14085L34.6477 8.12109C34.6439 8.10816 34.6395 8.09261 34.6358 8.0794L34.6307 8.06119C34.6285 8.05338 34.6267 8.04567 34.6248 8.03701L34.6248 8.037L34.6248 8.03698C34.6232 8.0298 34.6214 8.02196 34.6191 8.01286C34.614 7.99278 34.6082 7.96827 34.6048 7.95228C34.6026 7.942 34.601 7.93355 34.599 7.92331L34.599 7.9232L34.5953 7.90395C34.5912 7.88319 34.5875 7.86209 34.5841 7.84099C34.5813 7.82533 34.5789 7.80934 34.5766 7.79368C34.5735 7.7702 34.5708 7.74808 34.5681 7.72561L34.5663 7.71198C34.5648 7.70152 34.5633 7.69102 34.5633 7.68034C34.561 7.65734 34.5593 7.63371 34.5577 7.61035L34.5575 7.60786V7.60479L34.5566 7.59475C34.5557 7.58559 34.5548 7.57621 34.5548 7.56701C34.5521 7.52889 34.5521 7.49078 34.5521 7.45198C34.5521 7.40093 34.5541 7.34953 34.5575 7.29882L34.5606 7.25662C34.564 7.21578 34.5684 7.17494 34.5739 7.13478L34.5753 7.12515C34.5764 7.11784 34.5776 7.11057 34.5776 7.10347C34.5851 7.05378 34.5939 7.00476 34.6041 6.9561C34.6052 6.95084 34.6065 6.94559 34.6078 6.94039L34.611 6.92683C34.6201 6.88633 34.6304 6.84651 34.6412 6.80737C34.6433 6.80072 34.6453 6.79382 34.6473 6.78682L34.6511 6.77334C34.6791 6.67767 34.7133 6.58388 34.7532 6.49255C34.756 6.48596 34.7592 6.47917 34.7623 6.47247L34.7655 6.46567C34.7845 6.4238 34.8043 6.38296 34.8257 6.34246L34.8311 6.3319C34.8556 6.2863 34.8815 6.2416 34.9088 6.19781L34.9152 6.1876C34.9407 6.1471 34.9673 6.10728 34.9952 6.06848L35.0044 6.05555C35.0653 5.97192 35.1316 5.89234 35.2028 5.81731L35.2093 5.81051C35.2522 5.76626 35.2963 5.72372 35.3417 5.68288C35.1882 5.60796 35.023 5.56006 34.8533 5.54129H34.8427L34.8669 5.52495C35.0674 5.26642 35.3244 5.05721 35.6183 4.91333C35.9121 4.76945 36.235 4.69472 36.5621 4.69486C36.8886 4.69464 37.2108 4.76896 37.5042 4.91217C37.7976 5.05538 38.0543 5.26369 38.255 5.52122C38.3448 5.61617 38.4162 5.72695 38.4657 5.84794C38.5204 5.98164 38.5503 6.12419 38.5538 6.26861V6.30264V6.33327C38.5523 6.40046 38.5451 6.4674 38.5324 6.53339V6.51297C38.5324 6.39897 38.51 6.28608 38.4664 6.18074C38.4228 6.07541 38.3589 5.9797 38.2783 5.89907C38.1977 5.81845 38.102 5.75449 37.9967 5.71085C37.8914 5.66722 37.7785 5.64476 37.6645 5.64476C37.4551 5.64485 37.2528 5.72071 37.095 5.85834C36.9371 5.99597 36.8344 6.18606 36.8058 6.39351C36.7844 6.39622 36.7638 6.40029 36.7431 6.40436L36.7429 6.4044C36.5005 6.45007 36.2816 6.57894 36.1241 6.76877C35.9666 6.9586 35.8803 7.19748 35.8801 7.44415C35.8799 7.44596 35.8799 7.44778 35.8801 7.44959C35.8799 7.45163 35.8799 7.45368 35.8801 7.45572C35.8801 7.48907 35.8818 7.52175 35.8849 7.55408L35.8858 7.56112L35.8866 7.56599C35.8876 7.57219 35.8886 7.57834 35.8886 7.58437C35.8913 7.60683 35.8947 7.62862 35.8988 7.6504C35.9008 7.66177 35.9031 7.67281 35.9055 7.68384L35.9055 7.68391L35.9056 7.68443C35.9104 7.70553 35.9158 7.72629 35.9216 7.74671L35.9256 7.7606L35.9256 7.76063C35.9272 7.7663 35.9288 7.77193 35.9305 7.77735C35.9396 7.80593 35.9499 7.83452 35.9614 7.86175C35.9639 7.86803 35.9668 7.87405 35.9697 7.88006L35.975 7.89136C35.9832 7.91007 35.9934 7.93084 36.0006 7.94411C36.0058 7.95378 36.0115 7.9638 36.017 7.9734L36.023 7.98393C36.0279 7.99252 36.0326 8 36.0379 8.00843L36.0458 8.02103C36.0547 8.03532 36.0669 8.0537 36.0737 8.06323C36.0781 8.06929 36.0825 8.07521 36.087 8.08108L36.087 8.08112L36.087 8.08117L36.0945 8.09114C36.1362 8.146 36.183 8.19671 36.2344 8.24259L36.2432 8.25076C36.2613 8.26607 36.2797 8.28105 36.2984 8.29535L36.3086 8.30283C36.3935 8.3659 36.4875 8.41581 36.5873 8.45088C36.699 8.49055 36.8166 8.51092 36.9351 8.51112C37.2173 8.5149 37.498 8.55075 37.772 8.61799C38.1173 8.69957 38.4519 8.82085 38.7693 8.97943C39.2853 9.29394 39.7118 9.73585 40.0079 10.2627C40.3039 10.7896 40.4595 11.3837 40.4597 11.9881C40.4587 12.9225 40.0871 13.8184 39.4263 14.4792ZM37.5725 18.5319L37.5695 18.5393C37.222 19.4814 37.5603 20.0491 37.6103 20.1274L37.6154 20.1407V20.1376C37.6626 19.831 37.8231 19.5533 38.065 19.3592C38.2485 19.2123 38.4724 19.1249 38.7069 19.1087C39.3271 18.4496 39.9933 17.8355 40.7006 17.2709V17.2688C41.5429 16.6693 42.2297 15.8771 42.7038 14.9583C43.1778 14.0395 43.4253 13.0206 43.4257 11.9867C43.4272 10.5661 42.96 9.18468 42.0967 8.05647C41.5471 6.9347 42.273 5.68054 42.273 5.68054C42.3673 6.34284 43.3203 7.07832 43.3203 7.07832C44.4058 8.48426 44.9938 10.2108 44.992 11.9871C44.992 14.7755 43.5673 17.2358 41.4089 18.683L41.4045 18.686C41.3904 18.6962 41.3757 18.708 41.3605 18.7203L41.3544 18.7252L41.3395 18.7371C41.3395 18.7371 40.8582 19.0686 40.7782 19.6849C40.7624 19.8412 40.771 19.999 40.8038 20.1526C40.847 20.3013 40.9569 20.6396 41.0886 20.7757C41.0886 20.7757 41.0891 20.7744 41.09 20.772C41.0906 20.7701 41.0915 20.7677 41.0927 20.7648C41.2159 20.2693 41.6301 19.8956 42.1348 19.8497C42.1399 19.8471 42.1445 19.8448 42.1485 19.8428C42.1576 19.8382 42.1637 19.8351 42.1658 19.8337L42.1753 19.8286C42.1764 19.8279 42.1774 19.8269 42.1784 19.8259C42.1798 19.8245 42.1811 19.8231 42.1825 19.8231C44.7058 18.1275 46.3704 15.2493 46.3704 11.9874C46.3724 9.89845 45.6778 7.86845 44.3964 6.21862L44.3923 6.21589C44.3923 6.21589 43.5905 5.39907 43.3339 4.95663C42.7811 4.00333 42.645 3.05071 42.645 3C42.5793 3.09768 42.3295 3.44789 41.5219 4.56115C39.8217 7.09439 41.0996 9.0256 41.303 9.333C41.3134 9.3486 41.3209 9.36002 41.3252 9.36713C41.8004 10.1586 42.051 11.0646 42.0501 11.9878C42.05 12.7949 41.8588 13.5906 41.492 14.3097C41.1252 15.0287 40.5934 15.6507 39.94 16.1246C39.94 16.1246 39.6738 16.3013 39.3161 16.5827C38.7171 17.0534 37.8625 17.8171 37.5725 18.5319Z" fill="white"/>
</svg>
