<svg width="160" height="24" viewBox="0 0 160 24" fill="none" xmlns="http://www.w3.org/2000/svg">
<path d="M135.03 17.0499C133.635 17.0499 132.915 15.7449 132.915 14.4399C132.915 12.55 133.95 11.74 135.075 11.74C136.335 11.74 137.19 12.775 137.19 14.3949C137.19 16.1049 136.2 17.0499 135.03 17.0499ZM132.96 21.9999V18.4449C132.96 17.9949 132.915 17.7249 132.915 17.7249H132.96C132.96 17.7249 133.725 18.8949 135.39 18.8949C137.64 18.8949 139.305 17.1399 139.305 14.4399C139.305 11.785 137.82 9.98496 135.525 9.98496C133.5 9.98496 132.78 11.38 132.78 11.38H132.735C132.735 11.38 132.78 11.11 132.78 10.795V10.165H130.845V21.9999H132.96ZM125.4 17.1849C124.545 17.1849 124.095 16.6449 124.095 16.0599C124.095 14.8899 125.85 14.7099 126.93 14.7099H127.29V14.8899C127.335 16.0149 126.525 17.1849 125.4 17.1849ZM124.86 18.8499C126.795 18.8499 127.47 17.3649 127.47 17.3649H127.515C127.515 17.3649 127.47 17.6349 127.47 17.9499V18.6699H129.405V13.315C129.405 11.155 128.1 9.93996 125.85 9.93996C123.825 9.93996 122.52 10.975 122.52 10.975L123.33 12.505C123.33 12.505 124.455 11.695 125.67 11.695C126.615 11.695 127.29 12.1 127.29 13.18V13.315H127.02C125.625 13.315 121.98 13.495 121.98 16.1949C121.98 17.9049 123.33 18.8499 124.86 18.8499ZM113.79 18.6699L115.23 13.81C115.365 13.36 115.41 12.91 115.41 12.91H115.455C115.455 12.91 115.545 13.36 115.68 13.81L117.12 18.6699H119.46L122.07 10.165H119.865L118.38 15.7449C118.245 16.1949 118.2 16.6449 118.2 16.6449H118.155C118.155 16.6449 118.11 16.1949 117.975 15.7449L116.4 10.165H114.51L112.935 15.7449C112.8 16.1949 112.755 16.6449 112.755 16.6449H112.71C112.71 16.6449 112.665 16.1949 112.53 15.7449L111.045 10.165H108.795L111.405 18.6699H113.79ZM105.195 18.8499C107.22 18.8499 108.435 17.7249 108.435 16.2849C108.435 13.54 104.295 13.675 104.295 12.505C104.295 11.965 104.835 11.74 105.375 11.74C106.68 11.74 107.445 12.46 107.445 12.46L108.21 10.885C108.075 10.75 107.13 9.93996 105.375 9.93996C103.53 9.93996 102.135 10.84 102.135 12.46C102.135 15.2049 106.275 15.0249 106.275 16.2849C106.275 16.7799 105.735 17.0499 105.15 17.0499C103.755 17.0499 102.81 16.1049 102.81 16.1049L101.82 17.5899C101.865 17.5899 103.08 18.8499 105.195 18.8499ZM97.8598 18.6699V13.27L102.18 5.75496H99.5248L97.4998 9.57996C97.0948 10.39 96.7348 11.29 96.7348 11.29H96.6898C96.6898 11.29 96.3298 10.345 95.9248 9.57996L93.8998 5.75496H91.1998L95.5198 13.27V18.6699H97.8598ZM88.6348 13.405H85.2598L86.4298 9.93996C86.6998 9.21996 86.9698 7.91496 86.9698 7.91496H87.0148C87.0148 7.91496 87.2848 9.17496 87.5098 9.93996L88.6348 13.405ZM83.5948 18.6699L84.6748 15.3399H89.2198L90.2998 18.6699H92.7298L88.1848 5.70996H85.7098L81.1648 18.6699H83.5948ZM80.1298 18.6699V16.6449H74.5498V5.70996H72.2098V18.6699H80.1298ZM63.4798 18.6699V13H65.1448L68.2948 18.6699H70.9498L67.0798 11.92V11.875L70.7248 5.70996H68.1598L65.0998 10.975H63.4348V5.70996H61.0948V18.6699H63.4798Z" fill="#222222" fill-opacity="0.9"/>
<path d="M26.9398 12.73L32.8798 18.715H53.5798L32.5648 7.10498L26.9398 12.73Z" fill="#222222" fill-opacity="0.9"/>
<path d="M26.535 13.1799L21 18.7149H32.07L26.535 13.1799Z" fill="#222222" fill-opacity="0.9"/>
<path d="M26.3549 12.55L32.0699 6.79L26.9399 4L21.5399 17.41L26.3549 12.55Z" fill="#222222" fill-opacity="0.9"/>
</svg>
