<svg width="160" height="24" viewBox="0 0 160 24" fill="none" xmlns="http://www.w3.org/2000/svg">
<path d="M135.03 17.05C133.635 17.05 132.915 15.745 132.915 14.44C132.915 12.55 133.95 11.74 135.075 11.74C136.335 11.74 137.19 12.775 137.19 14.395C137.19 16.105 136.2 17.05 135.03 17.05ZM132.96 22V18.445C132.96 17.995 132.915 17.725 132.915 17.725H132.96C132.96 17.725 133.725 18.895 135.39 18.895C137.64 18.895 139.305 17.14 139.305 14.44C139.305 11.785 137.82 9.98502 135.525 9.98502C133.5 9.98502 132.78 11.38 132.78 11.38H132.735C132.735 11.38 132.78 11.11 132.78 10.795V10.165H130.845V22H132.96ZM125.4 17.185C124.545 17.185 124.095 16.645 124.095 16.06C124.095 14.89 125.85 14.71 126.93 14.71H127.29V14.89C127.335 16.015 126.525 17.185 125.4 17.185ZM124.86 18.85C126.795 18.85 127.47 17.365 127.47 17.365H127.515C127.515 17.365 127.47 17.635 127.47 17.95V18.67H129.405V13.315C129.405 11.155 128.1 9.94002 125.85 9.94002C123.825 9.94002 122.52 10.975 122.52 10.975L123.33 12.505C123.33 12.505 124.455 11.695 125.67 11.695C126.615 11.695 127.29 12.1 127.29 13.18V13.315H127.02C125.625 13.315 121.98 13.495 121.98 16.195C121.98 17.905 123.33 18.85 124.86 18.85ZM113.79 18.67L115.23 13.81C115.365 13.36 115.41 12.91 115.41 12.91H115.455C115.455 12.91 115.545 13.36 115.68 13.81L117.12 18.67H119.46L122.07 10.165H119.865L118.38 15.745C118.245 16.195 118.2 16.645 118.2 16.645H118.155C118.155 16.645 118.11 16.195 117.975 15.745L116.4 10.165H114.51L112.935 15.745C112.8 16.195 112.755 16.645 112.755 16.645H112.71C112.71 16.645 112.665 16.195 112.53 15.745L111.045 10.165H108.795L111.405 18.67H113.79ZM105.195 18.85C107.22 18.85 108.435 17.725 108.435 16.285C108.435 13.54 104.295 13.675 104.295 12.505C104.295 11.965 104.835 11.74 105.375 11.74C106.68 11.74 107.445 12.46 107.445 12.46L108.21 10.885C108.075 10.75 107.13 9.94002 105.375 9.94002C103.53 9.94002 102.135 10.84 102.135 12.46C102.135 15.205 106.275 15.025 106.275 16.285C106.275 16.78 105.735 17.05 105.15 17.05C103.755 17.05 102.81 16.105 102.81 16.105L101.82 17.59C101.865 17.59 103.08 18.85 105.195 18.85ZM97.8597 18.67V13.27L102.18 5.75502H99.5247L97.4997 9.58002C97.0947 10.39 96.7347 11.29 96.7347 11.29H96.6897C96.6897 11.29 96.3297 10.345 95.9247 9.58002L93.8997 5.75502H91.1997L95.5197 13.27V18.67H97.8597ZM88.6347 13.405H85.2597L86.4297 9.94002C86.6997 9.22002 86.9697 7.91502 86.9697 7.91502H87.0147C87.0147 7.91502 87.2847 9.17502 87.5097 9.94002L88.6347 13.405ZM83.5947 18.67L84.6747 15.34H89.2197L90.2997 18.67H92.7297L88.1847 5.71002H85.7097L81.1647 18.67H83.5947ZM80.1297 18.67V16.645H74.5497V5.71002H72.2097V18.67H80.1297ZM63.4797 18.67V13H65.1447L68.2947 18.67H70.9497L67.0797 11.92V11.875L70.7247 5.71002H68.1597L65.0997 10.975H63.4347V5.71002H61.0947V18.67H63.4797Z" fill="white"/>
<path d="M26.9399 12.73L32.8799 18.715H53.5799L32.5649 7.10501L26.9399 12.73Z" fill="white"/>
<path d="M26.535 13.18L21 18.715H32.07L26.535 13.18Z" fill="white"/>
<path d="M26.355 12.55L32.07 6.79L26.94 4L21.54 17.41L26.355 12.55Z" fill="white"/>
</svg>
