<svg width="32" height="32" viewBox="0 0 32 32" fill="none" xmlns="http://www.w3.org/2000/svg">
<path fill-rule="evenodd" clip-rule="evenodd" d="M16.531 1C19.8603 1.11202 23.0567 2.3337 25.6124 4.47097L8.88106 21.2056L16.531 1ZM17.9107 15.996L27.5199 6.38347C29.769 9.08107 31.0008 12.4825 31.0008 15.9952C31.0008 19.5079 29.769 22.9092 27.5199 25.6068L17.9107 15.996ZM12.7706 3.30607L1.03 15.0508C0.788937 18.8247 1.98428 22.5501 4.37592 25.4786L12.7706 3.30607ZM6.39226 27.5185L16.0015 17.9059L25.6098 27.5185C22.913 29.7684 19.5127 31.0007 16.001 31.0007C12.4894 31.0007 9.08906 29.7684 6.39226 27.5185Z" fill="white"/>
</svg>
