<svg width="160" height="28" viewBox="0 0 160 28" fill="none" xmlns="http://www.w3.org/2000/svg">
<g clip-path="url(#clip0)">
<path d="M64.5812 21.6512H66.5132V14.3999L69.4889 21.6512H71.047L74.0073 14.3999V21.6512H75.9393V10.7117H73.571L70.2681 18.7913L66.9652 10.7117H64.5812V21.6512Z" fill="#222222" fill-opacity="0.9"/>
<path d="M81.225 21.7762C83.6087 21.7762 85.3226 20.0571 85.3226 17.7129C85.3226 15.3687 83.6087 13.6497 81.225 13.6497C78.8258 13.6497 77.1119 15.3687 77.1119 17.7129C77.1119 20.0571 78.8258 21.7762 81.225 21.7762ZM81.225 20.1196C79.9162 20.1196 79.0439 19.135 79.0439 17.7129C79.0439 16.2908 79.9162 15.3062 81.225 15.3062C82.5183 15.3062 83.3906 16.2908 83.3906 17.7129C83.3906 19.135 82.5183 20.1196 81.225 20.1196Z" fill="#222222" fill-opacity="0.9"/>
<path d="M89.9967 21.7762C92.3805 21.7762 94.0943 20.0571 94.0943 17.7129C94.0943 15.3687 92.3805 13.6497 89.9967 13.6497C87.5975 13.6497 85.8837 15.3687 85.8837 17.7129C85.8837 20.0571 87.5975 21.7762 89.9967 21.7762ZM89.9967 20.1196C88.6879 20.1196 87.8157 19.135 87.8157 17.7129C87.8157 16.2908 88.6879 15.3062 89.9967 15.3062C91.2901 15.3062 92.1623 16.2908 92.1623 17.7129C92.1623 19.135 91.2901 20.1196 89.9967 20.1196Z" fill="#222222" fill-opacity="0.9"/>
<path d="M95.0763 21.6512H96.9928V17.3535C96.9928 16.197 97.7406 15.3531 98.8155 15.3531C99.7971 15.3531 100.451 16.1032 100.451 17.1816V21.6512H102.368V16.7752C102.368 14.9312 101.215 13.6497 99.4387 13.6497C98.3171 13.6497 97.4291 14.1341 96.9928 14.9937V13.7747H95.0763V21.6512Z" fill="#222222" fill-opacity="0.9"/>
<path d="M103.959 21.6512H106.031V17.4942H108.337C110.612 17.4942 111.967 16.0877 111.967 14.1029C111.967 12.1182 110.612 10.7117 108.337 10.7117H103.959V21.6512ZM106.031 15.7595V12.4464H108.244C109.459 12.4464 109.957 13.2278 109.957 14.1029C109.957 14.9781 109.459 15.7595 108.244 15.7595H106.031Z" fill="#222222" fill-opacity="0.9"/>
<path d="M115.646 13.6497C113.605 13.6497 112.281 14.8686 112.187 16.4314H113.901C113.932 15.7282 114.54 15.0874 115.552 15.0874C116.565 15.0874 117.157 15.6344 117.157 16.4002C117.157 16.7127 116.97 16.9315 116.581 16.9315H115.132C113.371 16.9315 112.187 17.8848 112.187 19.4164C112.187 20.776 113.247 21.7762 114.805 21.7762C115.927 21.7762 116.83 21.2605 117.157 20.479V21.6512H119.043V16.5877C119.043 14.8061 117.64 13.6497 115.646 13.6497ZM115.256 20.354C114.54 20.354 114.041 19.9477 114.041 19.3382C114.041 18.6506 114.587 18.1974 115.397 18.1974H117.157V18.3224C117.157 19.5101 116.456 20.354 115.256 20.354Z" fill="#222222" fill-opacity="0.9"/>
<path d="M126.8 13.7747H124.837L123.029 19.1819L121.206 13.7747H119.259L122.126 21.6511L121.019 24.8392H122.842L124.058 21.2761L126.8 13.7747Z" fill="#222222" fill-opacity="0.9"/>
<path d="M56.721 16.6046C56.721 22.8981 51.6347 27.9999 45.3605 27.9999C39.0863 27.9999 34 22.8981 34 16.6046C34 10.3111 39.0863 5.20923 45.3605 5.20923C51.6347 5.20923 56.721 10.3111 56.721 16.6046Z" fill="#222222" fill-opacity="0.9"/>
<path d="M63.5374 4.06976C63.5374 6.31744 61.7209 8.13955 59.4801 8.13955C57.2393 8.13955 55.4227 6.31744 55.4227 4.06976C55.4227 1.8221 57.2393 0 59.4801 0C61.7209 0 63.5374 1.8221 63.5374 4.06976Z" fill="#222222" fill-opacity="0.9"/>
</g>
<defs>
<clipPath id="clip0">
<rect width="160" height="28" fill="white"/>
</clipPath>
</defs>
</svg>
