<?xml version="1.0" encoding="UTF-8"?>
<svg width="24px" height="24px" viewBox="0 0 24 24" version="1.1" xmlns="http://www.w3.org/2000/svg" xmlns:xlink="http://www.w3.org/1999/xlink">
    <!-- Generator: Sketch 63.1 (92452) - https://sketch.com -->
    <title>Symbol / ant_antube</title>
    <desc>Created with Sketch.</desc>
    <g id="Symbol-/-ant_antube" stroke="none" stroke-width="1" fill="none" fill-rule="evenodd">
        <rect id="Rectangle" fill="#FFFFFF" opacity="0" x="0" y="0" width="24" height="24"></rect>
        <g id="ant_antube" transform="translate(0.500000, 0.500000)" fill-rule="nonzero">
            <path d="M22.9645019,11.5797951 C22.9645019,17.6853077 18.0126217,22.6348413 11.9038517,22.6348413 C5.79543569,22.6348413 0.843673496,17.6853077 0.843673496,11.5797951 C0.843673496,5.47416436 5.79543569,0.524985473 11.9038517,0.524985473 C18.0126217,0.524985473 22.9645019,5.47416436 22.9645019,11.5797951" id="Fill-1" fill="#D57825"></path>
            <path d="M22.4586915,11.1832836 C22.4586915,17.2889144 17.5065754,22.2382114 11.3980413,22.2382114 C5.28962523,22.2382114 0.337863047,17.2889144 0.337863047,11.1832836 C0.337863047,5.07788931 5.28962523,0.128355718 11.3980413,0.128355718 C17.5065754,0.128355718 22.4586915,5.07788931 22.4586915,11.1832836" id="Fill-2" fill="#FFEC19"></path>
            <path d="M20.7630812,11.3232595 C20.7630812,16.5349783 16.60422,20.7601363 11.4742223,20.7601363 C6.34433832,20.7601363 2.18570451,16.5349783 2.18570451,11.3232595 C2.18570451,6.11154055 6.34433832,1.88649843 11.4742223,1.88649843 C16.60422,1.88649843 20.7630812,6.11154055 20.7630812,11.3232595" id="Fill-3" fill="#D57825"></path>
            <circle id="椭圆形" fill="#FFC602" cx="11.6916667" cy="11.6916667" r="9.00833333"></circle>
            <g id="分组-2" transform="translate(6.388889, 5.537037)">
                <g id="分组">
                    <path d="M7.39647038,2.48884742 C7.63456598,2.6053059 7.86609381,2.7425438 8.08854101,2.90094661 C10.2545959,4.44337627 10.739414,7.40850597 9.17141244,9.52374917 C7.60341095,11.6389924 4.57636016,12.1033495 2.41030529,10.5609198 C0.244250411,9.01849015 -0.240567642,6.05336045 1.32743385,3.93811725 C1.76320889,3.35025417 2.31167818,2.88990245 2.92304001,2.56470179 L1.77344031,1.43796748 C1.48437863,1.15465521 1.47971782,0.690654433 1.7630301,0.401592752 C1.76646522,0.398087912 1.76993547,0.394617666 1.77344031,0.391182538 C2.07008754,0.100435584 2.54482098,0.100435584 2.84146821,0.391182538 L4.52546253,2.04168242 C4.92686063,1.98359718 5.33592909,1.97464171 5.74246957,2.01638045 L7.40064847,0.391182538 C7.6972957,0.100435584 8.17202914,0.100435584 8.46867637,0.391182538 C8.75773805,0.674494817 8.76239886,1.13849559 8.47908658,1.42755727 C8.47565145,1.43106212 8.47218121,1.43453236 8.46867637,1.43796748 L7.39647038,2.48884742 Z M4.22054434,8.29293441 C4.96885158,8.73359641 7.22046302,7.59903532 7.22287479,6.7181723 C7.22528276,5.83730928 4.93843653,4.58370866 4.22968535,4.9554555 C3.52093416,5.32720235 3.4722578,7.85223801 4.22054434,8.29293441 Z" id="Combined-Shape-Copy-2" fill="#D57825"></path>
                    <path d="M6.98915249,2.31572289 C7.22724809,2.43218136 7.45877592,2.56941927 7.68122313,2.72782207 C9.84727798,4.27025173 10.332096,7.23538144 8.76409456,9.35062463 C7.19609306,11.4658678 4.16904227,11.930225 2.0029874,10.3877952 C-0.163067476,8.84536562 -0.647885529,5.88023591 0.920115971,3.76499271 C1.35589101,3.17712963 1.9043603,2.71677791 2.51572213,2.39157724 L1.36612242,1.26484295 C1.07706074,0.981530673 1.07239994,0.517529894 1.35571221,0.228468212 C1.35914734,0.224963373 1.36261759,0.221493127 1.36612242,0.218057998 C1.66276966,-0.0726889557 2.13750309,-0.0726889557 2.43415033,0.218057998 L4.11814464,1.86855787 C4.51954274,1.81047265 4.92861121,1.80151718 5.33515168,1.84325591 L6.99333058,0.218057998 C7.28997781,-0.0726889557 7.76471125,-0.0726889557 8.06135848,0.218057998 C8.35042016,0.501370278 8.35508097,0.965371055 8.0717687,1.25443274 C8.06833357,1.25793757 8.06486332,1.26140782 8.06135848,1.26484295 L6.98915249,2.31572289 Z M3.81322646,8.11980988 C4.56153369,8.56047186 6.81314513,7.42591077 6.8155569,6.54504776 C6.81796487,5.66418474 4.53111864,4.41058411 3.82236746,4.78233096 C3.11361627,5.1540778 3.06493991,7.67911346 3.81322646,8.11980988 Z" id="Combined-Shape-Copy-2" fill="#FFF694"></path>
                </g>
            </g>
        </g>
    </g>
</svg>