<?xml version="1.0" encoding="UTF-8"?>
<svg width="24px" height="24px" viewBox="0 0 24 24" version="1.1" xmlns="http://www.w3.org/2000/svg" xmlns:xlink="http://www.w3.org/1999/xlink">
    <!-- Generator: Sketch 63.1 (92452) - https://sketch.com -->
    <title>Symbol / box_inconveniencebox</title>
    <desc>Created with Sketch.</desc>
    <g id="Symbol-/-box_inconveniencebox" stroke="none" stroke-width="1" fill="none" fill-rule="evenodd">
        <rect id="Rectangle" fill="#FFFFFF" opacity="0" x="0" y="0" width="24" height="24"></rect>
        <g id="box_inconveniencebox" transform="translate(2.000000, 2.000000)" fill-rule="nonzero">
            <g id="Group">
                <path d="M4.15,18.53 C2.67,18.53 1.47,17.33 1.47,15.85 L1.47,4.15 C1.47,2.67 2.67,1.47 4.15,1.47 L15.85,1.47 C17.33,1.47 18.53,2.67 18.53,4.15 L18.53,15.85 C18.53,17.33 17.33,18.53 15.85,18.53 L4.15,18.53 Z" id="Path" fill="#FFCD55"></path>
                <path d="M15.85,2.69 C16.66,2.69 17.31,3.35 17.31,4.15 L17.31,15.85 C17.31,16.66 16.65,17.31 15.85,17.31 L4.15,17.31 C3.34,17.31 2.69,16.65 2.69,15.85 L2.69,4.15 C2.69,3.34 3.35,2.69 4.15,2.69 L15.85,2.69 M15.85,0.25 L4.15,0.25 C2,0.25 0.25,2 0.25,4.15 L0.25,15.85 C0.25,18 2,19.75 4.15,19.75 L15.85,19.75 C18,19.75 19.75,18 19.75,15.85 L19.75,4.15 C19.75,1.99 18.01,0.25 15.85,0.25 L15.85,0.25 Z" id="Shape" fill="#141A1E"></path>
            </g>
            <path d="M5.12,12.71 L5.12,6.81 C5.12,6.21 5.61,5.73 6.2,5.73 L6.67,5.73 C7.27,5.73 7.75,6.22 7.75,6.81 L7.75,6.81 C7.75,7.41 8.24,7.89 8.83,7.89 L11.1,7.89 C11.7,7.89 12.18,7.4 12.18,6.81 L12.18,6.81 C12.18,6.21 12.67,5.73 13.26,5.73 L13.77,5.73 C14.37,5.73 14.85,6.22 14.85,6.81 L14.85,12.71 C14.85,13.57 14.15,14.27 13.29,14.27 L6.69,14.27 C5.82,14.28 5.12,13.58 5.12,12.71 Z M11.33,10.21 L8.64,10.21 C8.16,10.21 7.77,10.6 7.77,11.08 L7.77,11.08 C7.77,11.56 8.16,11.95 8.64,11.95 L11.33,11.95 C11.81,11.95 12.2,11.56 12.2,11.08 L12.2,11.08 C12.2,10.6 11.81,10.21 11.33,10.21 Z" id="Shape" fill="#141A1E"></path>
        </g>
    </g>
</svg>