<?xml version="1.0" encoding="UTF-8"?>
<svg width="24px" height="24px" viewBox="0 0 24 24" version="1.1" xmlns="http://www.w3.org/2000/svg" xmlns:xlink="http://www.w3.org/1999/xlink">
    <!-- Generator: Sketch 64 (93537) - https://sketch.com -->
    <title>Symbol / clbk_cloudbric</title>
    <desc>Created with Sketch.</desc>
    <defs>
        <polygon id="path-1" points="0 6.47058824e-05 17.4246471 6.47058824e-05 17.4246471 21.9419265 0 21.9419265"></polygon>
    </defs>
    <g id="Symbol-/-clbk_cloudbric" stroke="none" stroke-width="1" fill="none" fill-rule="evenodd">
        <rect id="Rectangle" fill="#FFFFFF" opacity="0" x="0" y="0" width="24" height="24"></rect>
        <g id="Group-5" transform="translate(1.000000, 2.000000)">
            <rect id="Rectangle" fill="#FFFFFF" opacity="0" x="0" y="0" width="22" height="22"></rect>
            <g id="Group-3" transform="translate(2.264706, 0.000000)">
                <mask id="mask-2" fill="white">
                    <use xlink:href="#path-1"></use>
                </mask>
                <g id="Clip-2"></g>
                <path d="M10.8987029,0.07205 L10.8987029,6.65150588 L11.7943941,7.24178529 C11.8811,7.29840294 11.9564824,7.37572647 12.0122912,7.47197647 C12.2046294,7.80407941 12.0909088,8.22871176 11.7588059,8.42056471 L10.5216294,9.13410882 L9.13061471,8.33272647 L10.0876147,7.78110882 L9.81762941,7.60332941 C9.61558529,7.46971176 9.50623235,7.24874118 9.50623235,7.02388824 L9.50445294,7.02388824 L9.50445294,0.0100941176 C9.24514412,0.00410882353 8.98211471,6.47058824e-05 8.71229118,6.47058824e-05 C8.44246765,6.47058824e-05 8.17927647,0.00410882353 7.92012941,0.0100941176 L7.92012941,7.02388824 L7.91851176,7.02388824 C7.91851176,7.24874118 7.80851176,7.46971176 7.60679118,7.60332941 L7.33664412,7.78110882 L8.71212941,8.57359412 L9.06154118,8.77402059 L11.7601,10.3290647 L11.7592912,10.3301971 C11.8615265,10.3897265 11.9503353,10.4756235 12.0135853,10.5848147 C12.0760265,10.6938441 12.1059529,10.8129029 12.1059529,10.9301824 L12.1059529,10.9306676 C12.1059529,11.0487559 12.0760265,11.1679765 12.0135853,11.2766824 C11.9503353,11.3865206 11.8615265,11.4720941 11.7592912,11.5311382 L11.7601,11.5321088 L10.5213059,12.2463 L9.13061471,11.4436235 L10.0219382,10.9306676 L8.71212941,10.1761971 L8.36449706,9.97593235 L7.32127647,9.37449118 L5.66545294,8.42056471 C5.33335,8.22871176 5.21962941,7.80407941 5.41229118,7.47197647 C5.46793824,7.37572647 5.54315882,7.29840294 5.63035,7.24178529 L6.52555588,6.65150588 L6.52555588,0.07205 C2.43129118,0.342035294 -3.23529412e-05,1.28399118 -3.23529412e-05,1.28399118 L-3.23529412e-05,11.2029176 C0.0336147059,16.1047118 3.95592353,19.2680206 6.52555588,20.8156235 L6.52555588,15.2104765 L5.63035,14.6206824 C5.54315882,14.5624471 5.46793824,14.4852853 5.41229118,14.3890353 C5.21962941,14.0577412 5.33335,13.6323 5.66545294,13.4407706 L6.90279118,12.7281971 L8.29380588,13.5289324 L7.33664412,14.0807118 L7.60679118,14.2581676 C7.80851176,14.3922706 7.91851176,14.6122706 7.91851176,14.8371235 L7.92012941,14.8371235 L7.92012941,21.5798 C8.4106,21.8221235 8.71196765,21.9419912 8.71196765,21.9419912 C8.71196765,21.9419912 9.01382059,21.8219618 9.50445294,21.5796382 L9.50445294,14.8371235 L9.50623235,14.8371235 C9.50623235,14.6122706 9.61558529,14.3922706 9.81762941,14.2581676 L10.0876147,14.0807118 L8.36271765,13.0873147 L5.66432059,11.5321088 L5.66480588,11.5311382 C5.56257059,11.4720941 5.47376176,11.3865206 5.41099706,11.2766824 C5.34807059,11.1679765 5.31830588,11.0487559 5.31862941,10.9306676 L5.31862941,10.9301824 C5.31830588,10.8129029 5.34807059,10.6938441 5.41099706,10.5848147 C5.47376176,10.4756235 5.56257059,10.3897265 5.66480588,10.3301971 L5.66432059,10.3290647 L6.90279118,9.61535882 L8.29380588,10.4167412 L7.40280588,10.9306676 L8.71212941,11.6854618 L9.06024706,11.8858882 L10.1034676,12.4870059 L10.1028206,12.4870059 L11.7588059,13.4407706 C12.0909088,13.6323 12.2046294,14.0577412 12.0122912,14.3890353 C11.9564824,14.4852853 11.8811,14.5624471 11.7943941,14.6206824 L10.8987029,15.2104765 L10.8987029,20.8156235 C13.4683353,19.2678588 17.3906441,16.1047118 17.4247765,11.2029176 L17.4247765,1.28399118 C17.4247765,1.28399118 14.9932912,0.341873529 10.8987029,0.07205" id="Fill-1" fill="#14203D" mask="url(#mask-2)"></path>
            </g>
        </g>
    </g>
</svg>