<?xml version="1.0" encoding="UTF-8"?>
<svg width="24px" height="24px" viewBox="0 0 24 24" version="1.1" xmlns="http://www.w3.org/2000/svg" xmlns:xlink="http://www.w3.org/1999/xlink">
    <!-- Generator: Sketch 63.1 (92452) - https://sketch.com -->
    <title>Symbol / cosm_fitsme</title>
    <desc>Created with Sketch.</desc>
    <defs>
        <linearGradient x1="1.92451136%" y1="63.7853295%" x2="98.0754818%" y2="36.2144814%" id="linearGradient-1">
            <stop stop-color="#FD93FF" offset="0%"></stop>
            <stop stop-color="#233890" offset="100%"></stop>
        </linearGradient>
    </defs>
    <g id="Symbol-/-cosm_fitsme" stroke="none" stroke-width="1" fill="none" fill-rule="evenodd">
        <rect id="Rectangle" fill="#FFFFFF" opacity="0" x="0" y="0" width="24" height="24"></rect>
        <g id="Cosmochain" transform="translate(1.000000, 1.000000)">
            <g id="Logo">
                <path d="M11,0 C4.925,0 0,4.925 0,11 L0,11 C0,17.075 4.925,22 11,22 L11,22 C17.075,22 22,17.075 22,11 L22,11 C22,4.925 17.075,0 11,0 Z" id="Fill-2" fill="url(#linearGradient-1)"></path>
                <path d="M10.5537,9.4022 L10.8887,9.8442 L11.7638,10.9979 L11.7578,11.0049 L14.2078,14.2759 C14.9168,15.2059 15.2558,16.1039 15.2558,17.0769 C15.2558,19.4829 13.2988,21.4399 10.8938,21.4399 C8.4878,21.4399 6.5308,19.4829 6.5308,17.0769 C6.5308,16.4459 6.6628,15.8369 6.9238,15.2669 L6.9238,15.2669 L6.9428,15.2279 C6.9718,15.1729 7.2348,14.6849 7.4708,14.3709 L7.4708,14.3709 L9.1378,12.1639 L10.0078,13.3229 L8.5838,15.2109 C8.4458,15.3939 8.2528,15.7339 8.1818,15.8649 C8.0108,16.2469 7.9238,16.6539 7.9238,17.0769 C7.9238,18.7149 9.2568,20.0469 10.8938,20.0469 C12.5298,20.0469 13.8628,18.7149 13.8628,17.0769 C13.8628,16.4159 13.6218,15.8039 13.0808,15.0939 L13.0808,15.0939 L12.9948,14.9709 L10.8848,12.1619 L10.8808,12.1659 L10.0108,11.0069 L10.0138,11.0029 L7.5248,7.6949 C6.8818,6.9119 6.5308,5.9289 6.5308,4.9229 C6.5308,2.5179 8.4878,0.5609 10.8938,0.5609 C13.2988,0.5609 15.2558,2.5179 15.2558,4.9229 C15.2558,5.6779 15.0598,6.4219 14.6888,7.0759 L14.6888,7.0759 L14.6518,7.1329 L14.2358,7.7229 L12.6358,9.8419 L11.7608,8.6889 L13.1108,6.9009 L13.4928,6.3589 C13.7358,5.9219 13.8628,5.4259 13.8628,4.9229 C13.8628,3.2859 12.5298,1.9539 10.8938,1.9539 C9.2568,1.9539 7.9238,3.2859 7.9238,4.9229 C7.9238,5.6079 8.1628,6.2759 8.5958,6.8049 L8.5958,6.8049 L8.6678,6.8919 L10.2648,9.0179 L10.5537,9.4022 Z" id="Combined-Shape" fill="#FFFFFF"></path>
            </g>
        </g>
    </g>
</svg>