<?xml version="1.0" encoding="UTF-8"?>
<svg width="24px" height="24px" viewBox="0 0 24 24" version="1.1" xmlns="http://www.w3.org/2000/svg" xmlns:xlink="http://www.w3.org/1999/xlink">
    <!-- Generator: Sketch 63.1 (92452) - https://sketch.com -->
    <title>Symbol / hint_haemuk</title>
    <desc>Created with Sketch.</desc>
    <g id="Symbol-/-hint_haemuk" stroke="none" stroke-width="1" fill="none" fill-rule="evenodd">
        <rect id="BG" fill="#D8D8D8" opacity="0" x="0" y="0" width="24" height="24"></rect>
        <g id="Group" transform="translate(0.500000, 1.300000)">
            <path d="M7.2795,20.9072614 L7.2795,13.5639886 C7.2795,13.3224886 7.15090909,13.1008523 6.94286364,12.980625 L0.583363636,9.30898864 L7.2795,5.44289773 L13.9756364,9.30898864 L14.5579545,8.97235227 L7.61509091,4.96407955 C7.40704545,4.84385227 7.15090909,4.84385227 6.94286364,4.96407955 L0.336636364,8.77789773 C0.128590909,8.89917045 3.55271368e-15,9.12080682 3.55271368e-15,9.36126136 L3.55271368e-15,16.9888977 C3.55271368e-15,17.2283068 0.128590909,17.4509886 0.336636364,17.5722614 L6.94286364,21.3850341 C7.15090909,21.5052614 7.40704545,21.5052614 7.61509091,21.3850341 L14.5579545,17.3767614 L13.9756364,17.0411705 L7.2795,20.9072614 Z" id="Fill-2" fill="#5082DC"></path>
            <path d="M15.7217545,16.0323068 L15.7217545,8.68903409 C15.7217545,8.44857955 15.8503455,8.22589773 16.0583909,8.10567045 L22.4178909,4.43403409 L15.7217545,0.567943182 L9.02561818,4.43403409 L8.4433,4.09739773 L15.3861636,0.0901704545 C15.5942091,-0.0300568182 15.8503455,-0.0300568182 16.0583909,0.0901704545 L22.6646182,3.90398864 C22.8726636,4.02421591 23.0002091,4.24585227 23.0002091,4.48630682 L23.0002091,12.1149886 C23.0002091,12.3543977 22.8726636,12.5760341 22.6646182,12.6973068 L16.0583909,16.511125 C15.8503455,16.6303068 15.5942091,16.6303068 15.3861636,16.511125 L8.4433,12.5028523 L9.02561818,12.1672614 L15.7217545,16.0323068 Z" id="Fill-5" fill="#B9CDF1"></path>
        </g>
    </g>
</svg>