<?xml version="1.0" encoding="UTF-8"?>
<svg width="24px" height="24px" viewBox="0 0 24 24" version="1.1" xmlns="http://www.w3.org/2000/svg" xmlns:xlink="http://www.w3.org/1999/xlink">
    <!-- Generator: Sketch 63.1 (92452) - https://sketch.com -->
    <title>Symbol /isr_thechallenge</title>
    <desc>Created with Sketch.</desc>
    <g id="Symbol-/isr_thechallenge" stroke="none" stroke-width="1" fill="none" fill-rule="evenodd">
        <rect id="BG" fill="#D8D8D8" opacity="0" x="0" y="0" width="24" height="24"></rect>
        <g id="Group-2" transform="translate(1.000000, 1.000000)" fill-rule="nonzero">
            <circle id="Oval" fill="#041E42" cx="11" cy="11" r="11"></circle>
            <g id="Group" transform="translate(4.425781, 3.222656)" fill="#C0ECFF">
                <path d="M6.57421875,0.0171875 L0.012890625,3.75117187 L0.012890625,11.8078125 L6.57421875,15.5375 L13.1355469,11.8035156 L13.1355469,3.75117187 L6.57421875,0.0171875 Z M10.9398438,10.2652344 C10.8496094,10.3167969 10.8152344,10.4371094 10.8667969,10.5273438 C10.9011719,10.5875 10.965625,10.6261719 11.034375,10.6261719 C11.06875,10.6261719 11.0988281,10.6175781 11.1289062,10.6003906 L12.753125,9.6765625 L12.753125,11.584375 L9.315625,13.5394531 L9.315625,11.5199219 C9.315625,11.4125 9.2296875,11.3265625 9.12226563,11.3265625 C9.01484375,11.3265625 8.92890625,11.4125 8.92890625,11.5199219 L8.92890625,13.7585937 L6.76328125,14.9875 L6.76328125,7.596875 L12.7488281,4.19375 L12.7488281,9.23398438 L10.9398438,10.2652344 Z M0.3953125,9.68085937 L4.56757813,12.0527344 C4.59765625,12.0699219 4.62773438,12.0785156 4.66210938,12.0785156 C4.73085937,12.0785156 4.7953125,12.0398437 4.8296875,11.9796875 C4.88125,11.8894531 4.85117188,11.7691406 4.75664063,11.7175781 L0.3953125,9.23828125 L0.3953125,4.19375 L6.38085938,7.596875 L6.38085938,9.75820312 L2.20859375,7.38632813 C2.11835938,7.33476563 1.99804688,7.36484375 1.94648438,7.459375 C1.92070313,7.50234375 1.91640625,7.55390625 1.92929688,7.60546875 C1.9421875,7.65703125 1.9765625,7.69570312 2.01953125,7.72148437 L6.38085938,10.2007812 L6.38085938,14.9875 L0.3953125,11.584375 L0.3953125,9.68085937 Z M8.39179688,2.60820312 C8.3015625,2.65976562 8.2671875,2.78007812 8.31875,2.8703125 C8.353125,2.93046875 8.41757813,2.96914062 8.48632813,2.96914062 C8.52070313,2.96914062 8.55078125,2.96054687 8.58085938,2.94335938 L9.75820313,2.27304688 L12.5554688,3.86289063 L6.57421875,7.26601562 L3.77695313,5.67617187 L7.3046875,3.66953125 C7.39492188,3.61796875 7.42929688,3.49765625 7.37773438,3.40742187 C7.35195313,3.36445312 7.30898438,3.33007812 7.26171875,3.3171875 C7.21445313,3.30429687 7.15859375,3.30859375 7.115625,3.334375 L3.39023438,5.45273437 L0.59296875,3.86289062 L6.57421875,0.459765625 L9.37148438,2.04960938 L8.39179688,2.60820312 Z" id="Shape"></path>
                <path d="M11.2019531,7.71289063 C11.1503906,7.62265625 11.0300781,7.58828125 10.9398437,7.63984375 L8.39179687,9.08789062 C8.3015625,9.13945312 8.2671875,9.25976562 8.31875,9.35 C8.353125,9.41015625 8.41757812,9.44882813 8.48632812,9.44882813 C8.52070312,9.44882813 8.55078125,9.44023438 8.58085937,9.42304688 L11.1289062,7.975 C11.2191406,7.9234375 11.2535156,7.80742188 11.2019531,7.71289063 Z" id="Path"></path>
            </g>
        </g>
    </g>
</svg>