<?xml version="1.0" encoding="UTF-8"?>
<svg width="24px" height="24px" viewBox="0 0 24 24" version="1.1" xmlns="http://www.w3.org/2000/svg" xmlns:xlink="http://www.w3.org/1999/xlink">
    <!-- Generator: Sketch 63.1 (92452) - https://sketch.com -->
    <title>Symbol / plt_whooo</title>
    <desc>Created with Sketch.</desc>
    <defs>
        <linearGradient x1="29.8001999%" y1="96.792725%" x2="55.6279099%" y2="10.5606828%" id="linearGradient-1">
            <stop stop-color="#B442D9" offset="0%"></stop>
            <stop stop-color="#DF47B6" offset="14%"></stop>
            <stop stop-color="#F4666D" offset="34%"></stop>
            <stop stop-color="#FE7F7F" offset="53%"></stop>
            <stop stop-color="#FE827E" offset="64%"></stop>
            <stop stop-color="#FE8B7A" offset="72%"></stop>
            <stop stop-color="#FF9B73" offset="79%"></stop>
            <stop stop-color="#FFA071" offset="80%"></stop>
            <stop stop-color="#FFAB71" offset="90%"></stop>
            <stop stop-color="#FFBA72" offset="100%"></stop>
        </linearGradient>
        <linearGradient x1="11.9233163%" y1="72.8421526%" x2="115.070036%" y2="17.8463274%" id="linearGradient-2">
            <stop stop-color="#FFBA72" offset="0%"></stop>
            <stop stop-color="#FFA071" offset="14%"></stop>
            <stop stop-color="#FE7F7F" offset="35%"></stop>
            <stop stop-color="#F4666D" offset="57%"></stop>
            <stop stop-color="#DF47B6" offset="80%"></stop>
            <stop stop-color="#7B5FF2" offset="100%"></stop>
        </linearGradient>
        <linearGradient x1="-24.4103774%" y1="49.8973136%" x2="98.7028302%" y2="49.8973136%" id="linearGradient-3">
            <stop stop-color="#FE7F7F" offset="0%"></stop>
            <stop stop-color="#F4666D" offset="52%"></stop>
            <stop stop-color="#DF47B6" offset="100%"></stop>
        </linearGradient>
    </defs>
    <g id="Symbol-/-plt_whooo" stroke="none" stroke-width="1" fill="none" fill-rule="evenodd">
        <rect id="BG" fill="#D8D8D8" opacity="0" x="0" y="0" width="24" height="24"></rect>
        <g id="Palette" transform="translate(1.000000, 1.000000)">
            <g id="Logo" transform="translate(2.500000, 0.500000)">
                <path d="M7.79016244,0 C4.3747988,0.0267272727 2.41320789,1.12159091 1.4242988,1.93486364 L1.4242988,1.93486364 C1.17898062,2.12863636 0.964207895,2.33672727 0.77616244,2.562 L0.77616244,2.562 C0.757071531,2.58490909 0.738935168,2.60686364 0.72366244,2.62690909 L0.72366244,2.62690909 L0.712207895,2.64122727 C0.628207895,2.74431818 0.589071531,2.80540909 0.589071531,2.80540909 L0.589071531,2.80540909 C0.447798804,3.00777273 0.329435168,3.22254545 0.236844259,3.44877273 L0.236844259,3.44877273 C-0.38933756,4.99513636 0.288389713,6.32959091 1.53884426,6.8355 L1.53884426,6.8355 C1.71734426,6.90709091 1.89870789,6.95290909 2.0752988,6.97295455 L2.0752988,6.97295455 L2.07625335,6.97295455 C2.07911699,6.97390909 2.08198062,6.97390909 2.08484426,6.97486364 L2.08484426,6.97486364 C4.06743517,7.12281818 4.6267988,5.07627273 4.77952608,4.60472727 L4.77952608,4.60472727 C4.79098062,4.5675 4.75661699,4.53313636 4.71938971,4.54459091 L4.71938971,4.54459091 C4.68407153,4.55795455 4.64970789,4.56845455 4.61534426,4.578 L4.61534426,4.578 C4.46738971,4.63145455 4.30607153,4.66295455 4.13520789,4.66295455 L4.13520789,4.66295455 C3.46511699,4.66295455 2.91911699,4.19427273 2.87616244,3.60340909 L2.87616244,3.60340909 C2.86470789,3.51272727 2.86948062,3.41536364 2.89620789,3.3075 L2.89620789,3.3075 C2.92770789,3.17004545 2.98688971,3.04213636 3.06802608,2.92759091 L3.06802608,2.92759091 C3.50807153,2.268 4.40057153,1.84322727 5.55270789,1.65804545 L5.55270789,1.65804545 C5.55270789,1.65804545 9.88634426,0.902045455 12.9322988,3.66640909 L12.9322988,3.66640909 C13.0229806,3.74468182 13.1098443,3.82677273 13.1909806,3.91172727 L13.1909806,3.91172727 C13.1909806,3.91268182 13.1928897,3.91268182 13.1928897,3.91363636 L13.1928897,3.91363636 L13.1928897,3.91268182 C13.9717988,4.72118182 14.364117,5.75495455 14.4252079,7.04931818 L14.4252079,7.04931818 C14.301117,10.0742727 12.4416624,10.7768182 9.53984426,10.8398182 L9.53984426,10.8398182 C9.53984426,10.8398182 8.48698062,10.8379091 7.48757153,10.8302727 L7.48757153,10.8302727 L8.87834426,4.08163636 C8.72275335,4.0635 8.56048062,4.05013636 8.39152608,4.04154545 L8.39152608,4.04154545 C6.59793517,3.92222727 5.15561699,5.1975 4.68311699,7.05027273 L4.68311699,7.05027273 L1.8127988,20.9265 C2.04570789,20.9751818 2.27861699,20.9990455 2.50770789,21 L2.50770789,21 L2.54207153,21 C4.14952608,20.9914091 5.60138971,19.8688636 5.9392988,18.2346818 L5.9392988,18.2346818 L6.91388971,13.5259091 C7.51048062,13.5373636 9.04157153,13.5602727 10.6652533,13.5335455 L10.6652533,13.5335455 C14.8948443,13.461 17.9894806,10.7548636 18.0648897,7.24213636 L18.0648897,7.24213636 C18.0858897,6.27327273 17.8577533,5.35118182 17.4348897,4.52072727 L17.4348897,4.52072727 L17.4358443,4.52072727 C16.2321624,1.98163636 13.3322533,0.932590909 13.3322533,0.932590909 L13.3322533,0.932590909 L13.3322533,0.9345 C12.5590715,0.618545455 11.7095261,0.380863636 10.794117,0.226227273 L10.794117,0.226227273 L10.7931624,0.225272727 C10.6833897,0.209045455 10.5726624,0.193772727 10.4647988,0.179454545 L10.4647988,0.179454545 C9.58852608,0.0610909091 8.78384426,0.00572727273 8.04407153,0 L8.04407153,0 L7.79016244,0 Z" id="Clip-3" fill="url(#linearGradient-1)"></path>
                <path d="M12.1314352,3.03736364 C12.4063443,3.2235 12.673617,3.43254545 12.9342079,3.66736364 L12.9342079,3.66736364 C13.0239352,3.74754545 13.1117533,3.83059091 13.1928897,3.91459091 L13.1928897,3.91459091 C13.1938443,3.91459091 13.1938443,3.91554545 13.1947988,3.91554545 L13.1947988,3.91554545 C13.9737079,4.72404545 14.3650715,5.75686364 14.4261624,7.05218182 L14.4261624,7.05218182 C14.3020715,10.0771364 12.442617,10.7787273 9.5407988,10.8426818 L9.5407988,10.8426818 C9.5407988,10.8426818 8.48793517,10.8398182 7.48948062,10.8321818 L7.48948062,10.8321818 L6.9157988,13.5278182 C7.51238971,13.5392727 9.04348062,13.5631364 10.6662079,13.5354545 L10.6662079,13.5354545 C12.5447533,13.5039545 14.2877533,13.0133182 15.4647079,12.0377727 L15.4647079,12.0377727 C17.6639806,9.85281818 16.3982533,7.24977273 16.3982533,7.24977273 L16.3982533,7.24977273 C15.886617,5.86568182 14.7888897,4.75840909 13.8744352,4.03390909 L13.8744352,4.03390909 C13.5985715,3.822 12.9962533,3.402 12.1323897,3.03736364 L12.1323897,3.03736364 L12.1314352,3.03736364 Z" id="Clip-6" fill="url(#linearGradient-2)"></path>
                <path d="M6.9157988,13.5278182 C7.51238971,13.5392727 9.04348062,13.5631364 10.6662079,13.5354545 L10.6662079,13.5354545 C12.3204352,13.5068182 13.8677533,13.1240455 15.0170261,12.3680455 L15.0170261,12.3680455 C10.2843897,13.797 7.48948062,10.8321818 7.48948062,10.8321818 L7.48948062,10.8321818 L6.9157988,13.5278182 Z" id="Clip-9" fill="url(#linearGradient-3)"></path>
            </g>
        </g>
    </g>
</svg>