<?xml version="1.0" encoding="UTF-8"?>
<svg width="24px" height="24px" viewBox="0 0 24 24" version="1.1" xmlns="http://www.w3.org/2000/svg" xmlns:xlink="http://www.w3.org/1999/xlink">
    <!-- Generator: Sketch 63.1 (92452) - https://sketch.com -->
    <title>Symbol / spin_womanstalk 2</title>
    <desc>Created with Sketch.</desc>
    <g id="Symbol-/-spin_womanstalk-2" stroke="none" stroke-width="1" fill="none" fill-rule="evenodd">
        <rect id="BG" fill="#D8D8D8" opacity="0" x="0" y="0" width="24" height="24"></rect>
        <path d="M7.75208333,4.52083333 C8.66875,5.4375 8.66875,6.90416667 7.75208333,7.72916667 C6.83541667,8.55416667 5.36875,8.64583333 4.54375,7.72916667 C3.71875,6.8125 3.62708333,5.34583333 4.54375,4.52083333 C5.46041667,3.69583333 6.83541667,3.60416667 7.75208333,4.52083333 M10.4104167,17.6291667 C11.6020833,17.9041667 12.3354167,19.1875 11.96875,20.4708333 C11.69375,21.6625 10.4104167,22.3958333 9.21875,22.0291667 C8.02708333,21.6625 7.29375,20.4708333 7.66041667,19.1875 C7.93541667,17.9958333 9.12708333,17.3541667 10.4104167,17.6291667 M19.2104167,7.54583333 C20.4020833,7.27083333 21.6854167,7.9125 22.0520833,9.10416667 C22.3270833,10.2958333 21.6854167,11.5791667 20.49375,11.8541667 C19.3020833,12.1291667 18.01875,11.4875 17.6520833,10.2958333 C17.2854167,9.19583333 18.01875,7.9125 19.2104167,7.54583333 M3.16875,9.0125 L3.16875,9.0125 C5.73541667,11.5791667 6.74375,15.2458333 5.82708333,18.7291667 L5.82708333,18.7291667 C5.27708333,20.9291667 6.56041667,23.1291667 8.76041667,23.7708333 C10.9604167,24.3208333 13.1604167,23.0375 13.8020833,20.9291667 C14.71875,17.4458333 17.46875,14.6958333 20.9520833,13.7791667 C23.1520833,13.2291667 24.4354167,10.9375 23.79375,8.7375 C23.24375,6.5375 20.9520833,5.25416667 18.7520833,5.80416667 L18.7520833,5.80416667 C15.26875,6.72083333 11.5104167,5.7125 9.03541667,3.2375 L9.03541667,3.2375 C7.38541667,1.5875 4.72708333,1.5875 3.16875,3.2375 C1.61041667,4.8875 1.61041667,7.3625 3.16875,9.0125" id="Shape" fill="#00DBBF" fill-rule="nonzero"></path>
    </g>
</svg>