<?xml version="1.0" encoding="UTF-8"?>
<svg width="24px" height="24px" viewBox="0 0 24 24" version="1.1" xmlns="http://www.w3.org/2000/svg" xmlns:xlink="http://www.w3.org/1999/xlink">
    <!-- Generator: Sketch 63.1 (92452) - https://sketch.com -->
    <title>Symbol / default</title>
    <desc>Created with Sketch.</desc>
    <g id="Symbol-/-default" stroke="none" stroke-width="1" fill="none" fill-rule="evenodd">
        <rect id="BG" fill="#C4CED3" opacity="0" x="0" y="0" width="24" height="24"></rect>
        <g id="bitcoin" fill-rule="nonzero">
            <g id="Group" transform="translate(1.000000, 1.000000)">
                <circle id="Oval" fill="#FFAA00" cx="10.8828638" cy="10.8828638" r="9.46695995"></circle>
                <path d="M10.8828638,1.41590389 C10.875218,1.41590389 10.8675721,1.41618707 10.8599262,1.41618707 L10.8599262,20.3495406 C10.8675721,20.3495406 10.8751613,20.3498238 10.8828638,20.3498238 C16.1113438,20.3498238 20.3498238,16.1113438 20.3498238,10.8828638 C20.3498238,5.65438387 16.1113438,1.41590389 10.8828638,1.41590389 Z" id="Path" fill="#FF9500"></path>
                <path d="M10.8828638,21.7657277 C4.88203661,21.7657277 -7.10542736e-15,16.8836911 -7.10542736e-15,10.8828638 C-7.10542736e-15,4.88203661 4.88203661,-7.10542736e-15 10.8828638,-7.10542736e-15 C16.8836911,-7.10542736e-15 21.7657277,4.88203661 21.7657277,10.8828638 C21.7657277,16.8836911 16.8836911,21.7657277 10.8828638,21.7657277 Z M10.8828638,2.83180778 C6.44349542,2.83180778 2.83180778,6.44349542 2.83180778,10.8828638 C2.83180778,15.3222323 6.44349542,18.9339199 10.8828638,18.9339199 C15.3222323,18.9339199 18.9339199,15.3222323 18.9339199,10.8828638 C18.9339199,6.44349542 15.3222323,2.83180778 10.8828638,2.83180778 Z" id="Shape" fill="#FFCE00"></path>
                <path d="M10.8828638,-7.10542736e-15 C10.875218,-7.10542736e-15 10.8675721,0.000283180778 10.8599262,0.000283180778 L10.8599262,2.83209096 C10.8675721,2.83209096 10.8751613,2.83180778 10.8828638,2.83180778 C15.3222323,2.83180778 18.9339199,6.44349542 18.9339199,10.8828638 C18.9339199,15.3222323 15.3222323,18.9339199 10.8828638,18.9339199 C10.875218,18.9339199 10.8675721,18.9336367 10.8599262,18.9336367 L10.8599262,21.7654445 C10.8675721,21.7654445 10.8751613,21.7657277 10.8828638,21.7657277 C16.8836911,21.7657277 21.7657277,16.8836911 21.7657277,10.8828638 C21.7657277,4.88203661 16.8836911,-7.10542736e-15 10.8828638,-7.10542736e-15 Z" id="Path" fill="#FDBA12"></path>
            </g>
        </g>
    </g>
</svg>