<?xml version="1.0" encoding="UTF-8"?>
<svg width="24px" height="24px" viewBox="0 0 24 24" version="1.1" xmlns="http://www.w3.org/2000/svg" xmlns:xlink="http://www.w3.org/1999/xlink">
    <!-- Generator: Sketch 64 (93537) - https://sketch.com -->
    <title>Symbol / xyz_blocknation.xyz</title>
    <desc>Created with Sketch.</desc>
    <g id="Symbol-/-xyz_blocknation.xyz" stroke="none" stroke-width="1" fill="none" fill-rule="evenodd">
        <rect id="Rectangle" fill="#FFFFFF" opacity="0" x="0" y="0" width="24" height="24"></rect>
        <g id="Group-18" transform="translate(1.000000, 0.500000)">
            <g id="Group-16">
                <polygon id="Fill-1" fill="#6699FF" points="10.99505 -1.52777778e-05 5.63277917 2.68115833 10.99505 5.36225556 16.3573208 2.68115833"></polygon>
                <polygon id="Fill-2" fill="#5C7DBE" points="10.9048806 12.3643667 5.54260972 9.68319306 5.54260972 2.77129722 10.9048806 5.45247083"></polygon>
                <polygon id="Fill-3" fill="#9DBEFF" points="11.0851813 12.3643667 16.4474521 9.68319306 16.4474521 2.77129722 11.0851813 5.45247083"></polygon>
                <polygon id="Fill-4" fill="#6699FF" points="21.8880903 12.5545903 16.5258194 15.2357639 11.1634722 12.5545903 16.5258194 9.87341667"></polygon>
                <polygon id="Fill-5" fill="#5C7DBE" points="11.0733563 19.575791 16.4357035 22.2569646 16.4357035 15.3450687 11.0733563 12.6638951"></polygon>
                <polygon id="Fill-6" fill="#9DBEFF" points="16.6159125 15.3450535 16.6159125 22.2569493 21.9782597 19.5757757 21.9782597 12.6638799"></polygon>
                <polygon id="Fill-7" fill="#6699FF" points="10.8147646 12.4736562 5.45241736 15.1548299 0.0901465278 12.4736562 5.45241736 9.79248264"></polygon>
                <polygon id="Fill-8" fill="#5C7DBE" points="0 19.565891 5.36227083 22.2469882 5.36227083 15.3350924 0 12.6539951"></polygon>
                <polygon id="Fill-9" fill="#9DBEFF" points="5.54255625 15.3350847 5.54255625 22.2469806 10.9048271 19.5658833 10.9048271 12.6539875"></polygon>
                <path d="M9.04714861,10.1957854 L9.04714861,8.61835486 L9.83594028,9.07378542 L9.83594028,10.6511396 L9.04714861,10.1957854 Z M9.04714861,7.82963958 L9.04714861,6.25220903 L9.83594028,6.70756319 L9.83594028,8.28499375 L9.04714861,7.82963958 Z M7.46971806,7.70764653 L7.46971806,6.91893125 L9.04714861,7.82963958 L9.04714861,8.61835486 L7.46971806,7.70764653 Z M6.68100278,8.82972292 L6.68100278,7.25229236 L7.46971806,7.70764653 L7.46971806,9.28507708 L6.68100278,8.82972292 Z M6.68100278,6.46357708 L6.68100278,4.88614653 L7.46971806,5.34150069 L7.46971806,6.91893125 L6.68100278,6.46357708 Z" id="Fill-10" fill="#FFFFFF"></path>
                <path d="M6.75742222,6.4194625 L7.39335972,6.7865875 L7.39335972,5.38553889 L6.75742222,5.01841389 L6.75742222,6.4194625 Z M9.12356806,7.78560139 L9.75950556,8.15265 L9.75950556,6.75167778 L9.12356806,6.38447639 L9.12356806,7.78560139 Z M7.5461375,7.66353194 L8.97079028,8.48601111 L8.97079028,7.87375417 L7.5461375,7.051275 L7.5461375,7.66353194 Z M6.75742222,8.78568472 L7.39335972,9.15273333 L7.39335972,7.75168472 L6.75742222,7.38463611 L6.75742222,8.78568472 Z M9.12356806,10.1516708 L9.75950556,10.5187958 L9.75950556,9.11782361 L9.12356806,8.75069861 L9.12356806,10.1516708 Z M9.91228333,10.7834833 L8.97079028,10.2399 L8.97079028,8.66239306 L7.5461375,7.83999028 L7.5461375,9.41742083 L6.60464444,8.8738375 L6.60464444,7.11994861 L7.39335972,7.57530278 L7.39335972,6.96296944 L6.60464444,6.50761528 L6.60464444,4.75380278 L7.5461375,5.29738611 L7.5461375,6.87481667 L8.97079028,7.69737222 L8.97079028,6.11994167 L9.91228333,6.66344861 L9.91228333,8.4173375 L9.12356806,7.96198333 L9.12356806,8.57424028 L9.91228333,9.02967083 L9.91228333,10.7834833 Z" id="Fill-11" fill="#231F20"></path>
                <polygon id="Fill-12" fill="#FFFFFF" points="1.77752361 19.0871847 1.77752361 18.2984694 3.35495417 19.2092542 3.35495417 18.4204625 0.988808333 17.0544 0.988808333 14.6882542 1.77752361 15.1436083 1.77752361 16.7210389 3.35495417 17.6317472 3.35495417 16.0543167 4.14374583 16.5097472 4.14374583 20.4533236"></polygon>
                <path d="M1.8539125,19.0431007 L4.06735694,20.3210104 L4.06735694,16.553816 L3.43134306,16.1866146 L3.43134306,17.7641215 L1.70113472,16.765184 L1.70113472,15.1876771 L1.06519722,14.8206285 L1.06519722,17.010316 L3.43134306,18.3763785 L3.43134306,19.3415521 L1.8539125,18.4307674 L1.8539125,19.0431007 Z M4.22013472,20.5856215 L1.70113472,19.1312535 L1.70113472,18.1661563 L3.27856528,19.0768646 L3.27856528,18.4646076 L0.912419444,17.0984687 L0.912419444,14.555941 L1.8539125,15.0995243 L1.8539125,16.6769549 L3.27856528,17.499434 L3.27856528,15.9220035 L4.22013472,16.4656632 L4.22013472,20.5856215 Z" id="Fill-13" fill="#231F20"></path>
                <path d="M12.9046424,17.6098389 L12.9046424,16.8211236 L14.4820729,17.7319083 L14.4820729,18.5206236 L12.9046424,17.6098389 Z M12.1160035,18.7319153 L12.1160035,17.1544847 L12.9046424,17.6098389 L12.9046424,18.3985542 L15.270941,19.7646931 L15.270941,20.5534083 L12.1160035,18.7319153 Z M14.4820729,17.7319083 L14.4820729,16.9431167 L12.1160035,15.5770542 L12.1160035,14.7883389 L15.270941,16.6098319 L15.270941,18.1872625 L14.4820729,17.7319083 Z" id="Fill-14" fill="#FFFFFF"></path>
                <path d="M14.5584924,17.6877937 L15.1945062,18.0549951 L15.1945062,16.6539465 L12.1923465,14.9206826 L12.1923465,15.5329396 L14.5584924,16.8990785 L14.5584924,17.6877937 Z M12.9810618,17.5657243 L14.4057146,18.3882799 L14.4057146,17.7759465 L12.9810618,16.9534674 L12.9810618,17.5657243 Z M12.1923465,18.6878771 L15.1945062,20.4210646 L15.1945062,19.8088076 L12.828284,18.4426687 L12.828284,17.6539535 L12.1923465,17.2868285 L12.1923465,18.6878771 Z M15.347284,20.6857521 L12.0395688,18.7760299 L12.0395688,17.022141 L12.828284,17.4774951 L12.828284,16.6887799 L14.4057146,17.5995646 L14.4057146,16.9872312 L12.0395688,15.6210924 L12.0395688,14.6560715 L15.347284,16.5657937 L15.347284,18.3195299 L14.5584924,17.8641757 L14.5584924,18.6529674 L12.9810618,17.7421826 L12.9810618,18.354516 L15.347284,19.7205785 L15.347284,20.6857521 Z" id="Fill-15" fill="#231F20"></path>
            </g>
        </g>
    </g>
</svg>
